M48
;DRILL file {KiCad (5.0.1)-3} date 02-Nov-18 18:37:05
;FORMAT={-:-/ absolute / metric / decimal}
FMAT,2
METRIC,TZ
T1C0.300
T2C0.400
T3C0.500
T4C0.700
T5C1.000
T6C1.097
T7C1.100
T8C1.200
T9C3.200
T10C1.100
%
G90
G05
M71
T1
X117.725Y-76.5
X117.725Y-80.
X124.17Y-76.125
X124.87Y-71.225
X126.19Y-68.42
X126.648Y-77.624
X128.426Y-76.095
X128.5Y-81.4
X128.5Y-84.5
X128.75Y-117.055
X129.442Y-70.98
X129.98Y-76.095
X130.Y-81.4
X130.Y-88.5
X131.Y-117.305
X131.22Y-68.48
X132.Y-97.4
X133.4Y-109.875
X133.506Y-70.98
X133.6Y-81.005
X133.616Y-84.905
X133.76Y-68.48
X133.76Y-73.52
X133.9Y-102.225
X134.4Y-81.005
X134.4Y-98.5
X135.2Y-109.975
X135.216Y-84.846
X136.Y-101.6
X136.3Y-68.48
X136.4Y-93.
X136.8Y-91.9
X137.2Y-87.425
X137.6Y-109.975
X138.375Y-105.7
X138.4Y-109.975
X138.84Y-68.48
X138.84Y-73.52
X141.022Y-86.155
X141.38Y-68.48
X141.38Y-71.234
X141.38Y-73.52
X141.38Y-75.552
X142.1Y-102.225
X143.3Y-105.6
X143.92Y-68.48
X145.8Y-111.475
X146.46Y-68.48
X146.46Y-73.52
X149.Y-68.44
X149.Y-73.52
X149.316Y-101.116
X151.54Y-68.48
X151.54Y-71.234
X151.54Y-73.52
X154.08Y-68.48
X154.08Y-73.52
X156.62Y-68.48
X156.62Y-73.56
X157.2Y-86.4
X157.322Y-92.255
X159.16Y-68.48
X159.16Y-73.52
X161.7Y-68.48
X161.7Y-71.234
X161.7Y-73.52
X164.24Y-68.48
X164.24Y-73.52
X165.17Y-108.725
X166.78Y-73.52
X166.83Y-69.75
X168.67Y-108.725
X169.32Y-73.52
X171.23Y-76.06
X171.86Y-68.48
X174.4Y-68.48
X175.3Y-110.5
T2
X117.5Y-75.
X117.5Y-78.225
X117.5Y-112.5
X117.5Y-114.5
X117.5Y-116.5
X118.Y-110.5
X120.Y-110.
X120.25Y-112.5
X120.25Y-115.5
X122.Y-110.
X122.97Y-67.925
X123.25Y-112.5
X123.25Y-115.5
X123.5Y-81.5
X124.Y-109.5
X125.Y-82.5
X125.5Y-108.
X125.7Y-120.9
X126.Y-84.
X126.Y-86.
X126.Y-88.
X126.Y-90.
X126.Y-92.
X126.Y-94.
X126.Y-96.
X126.Y-98.
X126.Y-100.
X126.Y-102.
X126.Y-104.
X126.Y-106.
X126.7Y-112.5
X126.7Y-115.2
X128.2Y-120.9
X128.9Y-87.4
X129.25Y-92.5
X129.25Y-97.5
X130.5Y-105.
X130.5Y-108.
X130.5Y-109.5
X130.7Y-120.9
X131.Y-85.5
X132.Y-106.375
X132.5Y-84.5
X132.5Y-86.
X132.5Y-93.5
X132.5Y-95.5
X133.2Y-120.9
X133.8Y-104.675
X134.45Y-85.555
X134.45Y-87.955
X134.45Y-93.355
X134.45Y-96.555
X135.7Y-120.9
X136.3Y-105.675
X136.5Y-95.
X136.5Y-98.
X138.Y-96.5
X138.2Y-120.9
X139.5Y-95.
X139.5Y-98.
X141.76Y-110.6
X142.Y-90.055
X142.Y-91.805
X142.Y-93.555
X142.Y-95.305
X142.Y-97.055
X143.5Y-120.6
X145.1Y-117.125
X145.8Y-114.405
X146.Y-120.8
X149.622Y-112.405
X150.Y-122.1
X150.25Y-106.055
X150.25Y-109.555
X150.65Y-103.255
X151.75Y-111.055
X152.25Y-108.055
X154.Y-110.055
X154.25Y-105.
X157.Y-121.5
X157.28Y-118.4
X157.5Y-101.
X157.5Y-104.
X157.5Y-107.
X157.5Y-110.
X157.5Y-113.
X157.5Y-116.
X157.7Y-77.5
X157.7Y-80.8
X159.25Y-95.
X159.31Y-98.1
X160.9Y-77.5
X161.69Y-98.08
X161.75Y-95.
X163.64Y-98.06
X163.75Y-101.
X163.75Y-104.
X163.75Y-107.
X163.75Y-110.
X163.75Y-113.
X163.75Y-116.
X163.75Y-119.
X164.25Y-77.5
X164.25Y-87.5
X164.25Y-92.5
X164.3Y-80.4
X164.5Y-121.5
X165.47Y-114.525
X166.29Y-99.09
X167.25Y-77.5
X167.25Y-80.5
X168.57Y-120.62
X168.97Y-116.125
X170.25Y-93.5
X170.25Y-98.5
X171.17Y-120.82
X171.25Y-77.5
X171.25Y-80.5
X171.3Y-114.2
X171.75Y-82.5
X172.25Y-87.5
X172.25Y-90.5
X172.25Y-92.5
X172.25Y-98.5
X172.25Y-101.5
X172.67Y-111.72
X172.75Y-117.
X174.25Y-122.5
X175.25Y-114.5
X175.422Y-90.505
X175.422Y-101.5
X175.672Y-108.905
X176.25Y-87.5
X176.25Y-92.5
X176.25Y-98.5
X176.75Y-82.5
X177.25Y-77.5
X177.25Y-80.5
X177.25Y-114.5
X177.872Y-112.405
X178.25Y-93.5
X178.25Y-98.5
X180.25Y-98.5
X180.25Y-105.
X180.25Y-108.5
X180.25Y-111.5
X180.25Y-114.5
X181.25Y-77.5
X181.25Y-80.5
X181.75Y-67.5
X184.25Y-70.
X184.25Y-72.5
X184.25Y-75.
X184.25Y-77.5
X184.25Y-80.
X184.25Y-82.5
X184.25Y-85.
X184.25Y-87.5
X184.25Y-90.
X184.25Y-92.5
X184.25Y-95.
X184.25Y-97.5
X184.25Y-100.
X184.25Y-102.5
T3
X175.75Y-71.
X176.409Y-69.409
X176.409Y-72.591
X178.Y-68.75
X178.Y-73.25
X179.591Y-69.409
X179.591Y-72.591
X180.25Y-71.
X117.75Y-71.
X118.409Y-69.409
X118.409Y-72.591
X120.Y-68.75
X120.Y-73.25
X121.591Y-69.409
X121.591Y-72.591
X122.25Y-71.
X117.75Y-120.
X118.409Y-118.409
X118.409Y-121.591
X120.Y-117.75
X120.Y-122.25
X121.591Y-118.409
X121.591Y-121.591
X122.25Y-120.
X175.75Y-120.
X176.409Y-118.409
X176.409Y-121.591
X178.Y-117.75
X178.Y-122.25
X179.591Y-118.409
X179.591Y-121.591
X180.25Y-120.
X152.222Y-88.055
X153.422Y-86.855
T4
X123.795Y-70.625
X126.27Y-71.025
X141.822Y-78.155
X143.822Y-78.155
X144.75Y-97.055
X145.822Y-78.155
X146.36Y-95.5
X147.66Y-97.055
X147.822Y-78.155
X148.86Y-95.5
X149.822Y-78.155
X149.822Y-80.155
X149.822Y-82.155
X150.222Y-97.055
X151.8Y-84.155
X151.822Y-78.155
X151.822Y-80.155
X151.822Y-82.155
X152.222Y-91.055
X152.222Y-93.055
X152.222Y-95.055
X152.222Y-97.055
X153.822Y-78.155
X153.822Y-80.155
X153.822Y-82.155
X153.822Y-84.155
X154.222Y-91.055
X154.222Y-93.055
X154.222Y-95.055
X154.222Y-97.055
X156.17Y-91.62
X156.222Y-93.055
X156.222Y-95.055
X156.222Y-97.055
X168.Y-98.9
X182.45Y-98.9
T5
X152.5Y-116.6
X152.5Y-119.14
X152.5Y-121.68
X155.04Y-116.6
X155.04Y-119.14
X155.04Y-121.68
X152.222Y-86.855
X153.422Y-88.055
T6
X125.55Y-119.
X128.09Y-119.
X130.63Y-119.
X133.17Y-119.
X135.71Y-119.
X138.25Y-119.
T7
X142.16Y-119.
X144.7Y-119.
X147.24Y-119.
X167.36Y-119.
X169.9Y-119.
X172.44Y-119.
T8
X180.Y-84.25
X180.Y-95.75
X168.5Y-84.25
X168.5Y-95.75
T9
X178.Y-71.
X120.Y-71.
X120.Y-120.
X178.Y-120.
T10
X142.16Y-121.54
X144.7Y-121.54
X147.24Y-121.54
X167.36Y-121.54
X169.9Y-121.54
X172.44Y-121.54
T0
M30
