G04 #@! TF.GenerationSoftware,KiCad,Pcbnew,(5.0.1)-3*
G04 #@! TF.CreationDate,2018-11-04T00:00:59+01:00*
G04 #@! TF.ProjectId,rpi_power,7270695F706F7765722E6B696361645F,rev?*
G04 #@! TF.SameCoordinates,Original*
G04 #@! TF.FileFunction,Soldermask,Top*
G04 #@! TF.FilePolarity,Negative*
%FSLAX46Y46*%
G04 Gerber Fmt 4.6, Leading zero omitted, Abs format (unit mm)*
G04 Created by KiCad (PCBNEW (5.0.1)-3) date 04-Nov-18 00:00:59*
%MOMM*%
%LPD*%
G01*
G04 APERTURE LIST*
%ADD10C,0.100000*%
G04 APERTURE END LIST*
D10*
G36*
X178518699Y-117094362D02*
X178860775Y-117162405D01*
X179397823Y-117384857D01*
X179881153Y-117707808D01*
X180292192Y-118118847D01*
X180615143Y-118602177D01*
X180837595Y-119139225D01*
X180870881Y-119306565D01*
X180926553Y-119586445D01*
X180951000Y-119709352D01*
X180951000Y-120290648D01*
X180837595Y-120860775D01*
X180615143Y-121397823D01*
X180292192Y-121881153D01*
X179881153Y-122292192D01*
X179397823Y-122615143D01*
X178860775Y-122837595D01*
X178518699Y-122905638D01*
X178290650Y-122951000D01*
X177709350Y-122951000D01*
X177481301Y-122905638D01*
X177139225Y-122837595D01*
X176602177Y-122615143D01*
X176118847Y-122292192D01*
X175707808Y-121881153D01*
X175384857Y-121397823D01*
X175162405Y-120860775D01*
X175049000Y-120290648D01*
X175049000Y-119709352D01*
X175073448Y-119586445D01*
X175129119Y-119306565D01*
X175162405Y-119139225D01*
X175384857Y-118602177D01*
X175707808Y-118118847D01*
X176118847Y-117707808D01*
X176602177Y-117384857D01*
X177139225Y-117162405D01*
X177481301Y-117094362D01*
X177709350Y-117049000D01*
X178290650Y-117049000D01*
X178518699Y-117094362D01*
X178518699Y-117094362D01*
G37*
G36*
X120518699Y-117094362D02*
X120860775Y-117162405D01*
X121397823Y-117384857D01*
X121881153Y-117707808D01*
X122292192Y-118118847D01*
X122615143Y-118602177D01*
X122837595Y-119139225D01*
X122870881Y-119306565D01*
X122926553Y-119586445D01*
X122951000Y-119709352D01*
X122951000Y-120290648D01*
X122837595Y-120860775D01*
X122615143Y-121397823D01*
X122292192Y-121881153D01*
X121881153Y-122292192D01*
X121397823Y-122615143D01*
X120860775Y-122837595D01*
X120518699Y-122905638D01*
X120290650Y-122951000D01*
X119709350Y-122951000D01*
X119481301Y-122905638D01*
X119139225Y-122837595D01*
X118602177Y-122615143D01*
X118118847Y-122292192D01*
X117707808Y-121881153D01*
X117384857Y-121397823D01*
X117162405Y-120860775D01*
X117049000Y-120290648D01*
X117049000Y-119709352D01*
X117073448Y-119586445D01*
X117129119Y-119306565D01*
X117162405Y-119139225D01*
X117384857Y-118602177D01*
X117707808Y-118118847D01*
X118118847Y-117707808D01*
X118602177Y-117384857D01*
X119139225Y-117162405D01*
X119481301Y-117094362D01*
X119709350Y-117049000D01*
X120290650Y-117049000D01*
X120518699Y-117094362D01*
X120518699Y-117094362D01*
G37*
G36*
X152610442Y-120785518D02*
X152676627Y-120792037D01*
X152789853Y-120826384D01*
X152846467Y-120843557D01*
X152985087Y-120917652D01*
X153002991Y-120927222D01*
X153017342Y-120939000D01*
X153140186Y-121039814D01*
X153222397Y-121139990D01*
X153252778Y-121177009D01*
X153252779Y-121177011D01*
X153336443Y-121333533D01*
X153336443Y-121333534D01*
X153387963Y-121503373D01*
X153405359Y-121680000D01*
X153387963Y-121856627D01*
X153355846Y-121962504D01*
X153336443Y-122026467D01*
X153311784Y-122072600D01*
X153252778Y-122182991D01*
X153223448Y-122218729D01*
X153140186Y-122320186D01*
X153065410Y-122381552D01*
X153002991Y-122432778D01*
X153002989Y-122432779D01*
X152846467Y-122516443D01*
X152789853Y-122533616D01*
X152676627Y-122567963D01*
X152610443Y-122574481D01*
X152544260Y-122581000D01*
X152455740Y-122581000D01*
X152389557Y-122574481D01*
X152323373Y-122567963D01*
X152210147Y-122533616D01*
X152153533Y-122516443D01*
X151997011Y-122432779D01*
X151997009Y-122432778D01*
X151934590Y-122381552D01*
X151859814Y-122320186D01*
X151776552Y-122218729D01*
X151747222Y-122182991D01*
X151688216Y-122072600D01*
X151663557Y-122026467D01*
X151644154Y-121962504D01*
X151612037Y-121856627D01*
X151594641Y-121680000D01*
X151612037Y-121503373D01*
X151663557Y-121333534D01*
X151663557Y-121333533D01*
X151747221Y-121177011D01*
X151747222Y-121177009D01*
X151777603Y-121139990D01*
X151859814Y-121039814D01*
X151982658Y-120939000D01*
X151997009Y-120927222D01*
X152014913Y-120917652D01*
X152153533Y-120843557D01*
X152210147Y-120826384D01*
X152323373Y-120792037D01*
X152389558Y-120785518D01*
X152455740Y-120779000D01*
X152544260Y-120779000D01*
X152610442Y-120785518D01*
X152610442Y-120785518D01*
G37*
G36*
X155150442Y-120785518D02*
X155216627Y-120792037D01*
X155329853Y-120826384D01*
X155386467Y-120843557D01*
X155525087Y-120917652D01*
X155542991Y-120927222D01*
X155557342Y-120939000D01*
X155680186Y-121039814D01*
X155762397Y-121139990D01*
X155792778Y-121177009D01*
X155792779Y-121177011D01*
X155876443Y-121333533D01*
X155876443Y-121333534D01*
X155927963Y-121503373D01*
X155945359Y-121680000D01*
X155927963Y-121856627D01*
X155895846Y-121962504D01*
X155876443Y-122026467D01*
X155851784Y-122072600D01*
X155792778Y-122182991D01*
X155763448Y-122218729D01*
X155680186Y-122320186D01*
X155605410Y-122381552D01*
X155542991Y-122432778D01*
X155542989Y-122432779D01*
X155386467Y-122516443D01*
X155329853Y-122533616D01*
X155216627Y-122567963D01*
X155150443Y-122574481D01*
X155084260Y-122581000D01*
X154995740Y-122581000D01*
X154929557Y-122574481D01*
X154863373Y-122567963D01*
X154750147Y-122533616D01*
X154693533Y-122516443D01*
X154537011Y-122432779D01*
X154537009Y-122432778D01*
X154474590Y-122381552D01*
X154399814Y-122320186D01*
X154316552Y-122218729D01*
X154287222Y-122182991D01*
X154228216Y-122072600D01*
X154203557Y-122026467D01*
X154184154Y-121962504D01*
X154152037Y-121856627D01*
X154134641Y-121680000D01*
X154152037Y-121503373D01*
X154203557Y-121333534D01*
X154203557Y-121333533D01*
X154287221Y-121177011D01*
X154287222Y-121177009D01*
X154317603Y-121139990D01*
X154399814Y-121039814D01*
X154522658Y-120939000D01*
X154537009Y-120927222D01*
X154554913Y-120917652D01*
X154693533Y-120843557D01*
X154750147Y-120826384D01*
X154863373Y-120792037D01*
X154929558Y-120785518D01*
X154995740Y-120779000D01*
X155084260Y-120779000D01*
X155150442Y-120785518D01*
X155150442Y-120785518D01*
G37*
G36*
X167535305Y-120962096D02*
X167644680Y-121007400D01*
X167743118Y-121073175D01*
X167826825Y-121156882D01*
X167892600Y-121255320D01*
X167937904Y-121364695D01*
X167961000Y-121480806D01*
X167961000Y-121599194D01*
X167937904Y-121715305D01*
X167892600Y-121824680D01*
X167826825Y-121923118D01*
X167743118Y-122006825D01*
X167644680Y-122072600D01*
X167535305Y-122117904D01*
X167419194Y-122141000D01*
X167300806Y-122141000D01*
X167184695Y-122117904D01*
X167075320Y-122072600D01*
X166976882Y-122006825D01*
X166893175Y-121923118D01*
X166827400Y-121824680D01*
X166782096Y-121715305D01*
X166759000Y-121599194D01*
X166759000Y-121480806D01*
X166782096Y-121364695D01*
X166827400Y-121255320D01*
X166893175Y-121156882D01*
X166976882Y-121073175D01*
X167075320Y-121007400D01*
X167184695Y-120962096D01*
X167300806Y-120939000D01*
X167419194Y-120939000D01*
X167535305Y-120962096D01*
X167535305Y-120962096D01*
G37*
G36*
X170075305Y-120962096D02*
X170184680Y-121007400D01*
X170283118Y-121073175D01*
X170366825Y-121156882D01*
X170432600Y-121255320D01*
X170477904Y-121364695D01*
X170501000Y-121480806D01*
X170501000Y-121599194D01*
X170477904Y-121715305D01*
X170432600Y-121824680D01*
X170366825Y-121923118D01*
X170283118Y-122006825D01*
X170184680Y-122072600D01*
X170075305Y-122117904D01*
X169959194Y-122141000D01*
X169840806Y-122141000D01*
X169724695Y-122117904D01*
X169615320Y-122072600D01*
X169516882Y-122006825D01*
X169433175Y-121923118D01*
X169367400Y-121824680D01*
X169322096Y-121715305D01*
X169299000Y-121599194D01*
X169299000Y-121480806D01*
X169322096Y-121364695D01*
X169367400Y-121255320D01*
X169433175Y-121156882D01*
X169516882Y-121073175D01*
X169615320Y-121007400D01*
X169724695Y-120962096D01*
X169840806Y-120939000D01*
X169959194Y-120939000D01*
X170075305Y-120962096D01*
X170075305Y-120962096D01*
G37*
G36*
X172615305Y-120962096D02*
X172724680Y-121007400D01*
X172823118Y-121073175D01*
X172906825Y-121156882D01*
X172972600Y-121255320D01*
X173017904Y-121364695D01*
X173041000Y-121480806D01*
X173041000Y-121599194D01*
X173017904Y-121715305D01*
X172972600Y-121824680D01*
X172906825Y-121923118D01*
X172823118Y-122006825D01*
X172724680Y-122072600D01*
X172615305Y-122117904D01*
X172499194Y-122141000D01*
X172380806Y-122141000D01*
X172264695Y-122117904D01*
X172155320Y-122072600D01*
X172056882Y-122006825D01*
X171973175Y-121923118D01*
X171907400Y-121824680D01*
X171862096Y-121715305D01*
X171839000Y-121599194D01*
X171839000Y-121480806D01*
X171862096Y-121364695D01*
X171907400Y-121255320D01*
X171973175Y-121156882D01*
X172056882Y-121073175D01*
X172155320Y-121007400D01*
X172264695Y-120962096D01*
X172380806Y-120939000D01*
X172499194Y-120939000D01*
X172615305Y-120962096D01*
X172615305Y-120962096D01*
G37*
G36*
X144875305Y-120962096D02*
X144984680Y-121007400D01*
X145083118Y-121073175D01*
X145166825Y-121156882D01*
X145232600Y-121255320D01*
X145277904Y-121364695D01*
X145301000Y-121480806D01*
X145301000Y-121599194D01*
X145277904Y-121715305D01*
X145232600Y-121824680D01*
X145166825Y-121923118D01*
X145083118Y-122006825D01*
X144984680Y-122072600D01*
X144875305Y-122117904D01*
X144759194Y-122141000D01*
X144640806Y-122141000D01*
X144524695Y-122117904D01*
X144415320Y-122072600D01*
X144316882Y-122006825D01*
X144233175Y-121923118D01*
X144167400Y-121824680D01*
X144122096Y-121715305D01*
X144099000Y-121599194D01*
X144099000Y-121480806D01*
X144122096Y-121364695D01*
X144167400Y-121255320D01*
X144233175Y-121156882D01*
X144316882Y-121073175D01*
X144415320Y-121007400D01*
X144524695Y-120962096D01*
X144640806Y-120939000D01*
X144759194Y-120939000D01*
X144875305Y-120962096D01*
X144875305Y-120962096D01*
G37*
G36*
X147415305Y-120962096D02*
X147524680Y-121007400D01*
X147623118Y-121073175D01*
X147706825Y-121156882D01*
X147772600Y-121255320D01*
X147817904Y-121364695D01*
X147841000Y-121480806D01*
X147841000Y-121599194D01*
X147817904Y-121715305D01*
X147772600Y-121824680D01*
X147706825Y-121923118D01*
X147623118Y-122006825D01*
X147524680Y-122072600D01*
X147415305Y-122117904D01*
X147299194Y-122141000D01*
X147180806Y-122141000D01*
X147064695Y-122117904D01*
X146955320Y-122072600D01*
X146856882Y-122006825D01*
X146773175Y-121923118D01*
X146707400Y-121824680D01*
X146662096Y-121715305D01*
X146639000Y-121599194D01*
X146639000Y-121480806D01*
X146662096Y-121364695D01*
X146707400Y-121255320D01*
X146773175Y-121156882D01*
X146856882Y-121073175D01*
X146955320Y-121007400D01*
X147064695Y-120962096D01*
X147180806Y-120939000D01*
X147299194Y-120939000D01*
X147415305Y-120962096D01*
X147415305Y-120962096D01*
G37*
G36*
X142335305Y-120962096D02*
X142444680Y-121007400D01*
X142543118Y-121073175D01*
X142626825Y-121156882D01*
X142692600Y-121255320D01*
X142737904Y-121364695D01*
X142761000Y-121480806D01*
X142761000Y-121599194D01*
X142737904Y-121715305D01*
X142692600Y-121824680D01*
X142626825Y-121923118D01*
X142543118Y-122006825D01*
X142444680Y-122072600D01*
X142335305Y-122117904D01*
X142219194Y-122141000D01*
X142100806Y-122141000D01*
X141984695Y-122117904D01*
X141875320Y-122072600D01*
X141776882Y-122006825D01*
X141693175Y-121923118D01*
X141627400Y-121824680D01*
X141582096Y-121715305D01*
X141559000Y-121599194D01*
X141559000Y-121480806D01*
X141582096Y-121364695D01*
X141627400Y-121255320D01*
X141693175Y-121156882D01*
X141776882Y-121073175D01*
X141875320Y-121007400D01*
X141984695Y-120962096D01*
X142100806Y-120939000D01*
X142219194Y-120939000D01*
X142335305Y-120962096D01*
X142335305Y-120962096D01*
G37*
G36*
X170206565Y-117989389D02*
X170397834Y-118068615D01*
X170569976Y-118183637D01*
X170716363Y-118330024D01*
X170831385Y-118502166D01*
X170910611Y-118693435D01*
X170951000Y-118896484D01*
X170951000Y-119103516D01*
X170910611Y-119306565D01*
X170831385Y-119497834D01*
X170716363Y-119669976D01*
X170569976Y-119816363D01*
X170397834Y-119931385D01*
X170206565Y-120010611D01*
X170003516Y-120051000D01*
X169796484Y-120051000D01*
X169593435Y-120010611D01*
X169402166Y-119931385D01*
X169230024Y-119816363D01*
X169083637Y-119669976D01*
X168968615Y-119497834D01*
X168889389Y-119306565D01*
X168849000Y-119103516D01*
X168849000Y-118896484D01*
X168889389Y-118693435D01*
X168968615Y-118502166D01*
X169083637Y-118330024D01*
X169230024Y-118183637D01*
X169402166Y-118068615D01*
X169593435Y-117989389D01*
X169796484Y-117949000D01*
X170003516Y-117949000D01*
X170206565Y-117989389D01*
X170206565Y-117989389D01*
G37*
G36*
X173491000Y-120051000D02*
X171389000Y-120051000D01*
X171389000Y-117949000D01*
X173491000Y-117949000D01*
X173491000Y-120051000D01*
X173491000Y-120051000D01*
G37*
G36*
X142466565Y-117989389D02*
X142657834Y-118068615D01*
X142829976Y-118183637D01*
X142976363Y-118330024D01*
X143091385Y-118502166D01*
X143170611Y-118693435D01*
X143211000Y-118896484D01*
X143211000Y-119103516D01*
X143170611Y-119306565D01*
X143091385Y-119497834D01*
X142976363Y-119669976D01*
X142829976Y-119816363D01*
X142657834Y-119931385D01*
X142466565Y-120010611D01*
X142263516Y-120051000D01*
X142056484Y-120051000D01*
X141853435Y-120010611D01*
X141662166Y-119931385D01*
X141490024Y-119816363D01*
X141343637Y-119669976D01*
X141228615Y-119497834D01*
X141149389Y-119306565D01*
X141109000Y-119103516D01*
X141109000Y-118896484D01*
X141149389Y-118693435D01*
X141228615Y-118502166D01*
X141343637Y-118330024D01*
X141490024Y-118183637D01*
X141662166Y-118068615D01*
X141853435Y-117989389D01*
X142056484Y-117949000D01*
X142263516Y-117949000D01*
X142466565Y-117989389D01*
X142466565Y-117989389D01*
G37*
G36*
X145006565Y-117989389D02*
X145197834Y-118068615D01*
X145369976Y-118183637D01*
X145516363Y-118330024D01*
X145631385Y-118502166D01*
X145710611Y-118693435D01*
X145751000Y-118896484D01*
X145751000Y-119103516D01*
X145710611Y-119306565D01*
X145631385Y-119497834D01*
X145516363Y-119669976D01*
X145369976Y-119816363D01*
X145197834Y-119931385D01*
X145006565Y-120010611D01*
X144803516Y-120051000D01*
X144596484Y-120051000D01*
X144393435Y-120010611D01*
X144202166Y-119931385D01*
X144030024Y-119816363D01*
X143883637Y-119669976D01*
X143768615Y-119497834D01*
X143689389Y-119306565D01*
X143649000Y-119103516D01*
X143649000Y-118896484D01*
X143689389Y-118693435D01*
X143768615Y-118502166D01*
X143883637Y-118330024D01*
X144030024Y-118183637D01*
X144202166Y-118068615D01*
X144393435Y-117989389D01*
X144596484Y-117949000D01*
X144803516Y-117949000D01*
X145006565Y-117989389D01*
X145006565Y-117989389D01*
G37*
G36*
X167666565Y-117989389D02*
X167857834Y-118068615D01*
X168029976Y-118183637D01*
X168176363Y-118330024D01*
X168291385Y-118502166D01*
X168370611Y-118693435D01*
X168411000Y-118896484D01*
X168411000Y-119103516D01*
X168370611Y-119306565D01*
X168291385Y-119497834D01*
X168176363Y-119669976D01*
X168029976Y-119816363D01*
X167857834Y-119931385D01*
X167666565Y-120010611D01*
X167463516Y-120051000D01*
X167256484Y-120051000D01*
X167053435Y-120010611D01*
X166862166Y-119931385D01*
X166690024Y-119816363D01*
X166543637Y-119669976D01*
X166428615Y-119497834D01*
X166349389Y-119306565D01*
X166309000Y-119103516D01*
X166309000Y-118896484D01*
X166349389Y-118693435D01*
X166428615Y-118502166D01*
X166543637Y-118330024D01*
X166690024Y-118183637D01*
X166862166Y-118068615D01*
X167053435Y-117989389D01*
X167256484Y-117949000D01*
X167463516Y-117949000D01*
X167666565Y-117989389D01*
X167666565Y-117989389D01*
G37*
G36*
X148291000Y-120051000D02*
X146189000Y-120051000D01*
X146189000Y-117949000D01*
X148291000Y-117949000D01*
X148291000Y-120051000D01*
X148291000Y-120051000D01*
G37*
G36*
X125755928Y-117964710D02*
X125755931Y-117964711D01*
X125755932Y-117964711D01*
X125953950Y-118024779D01*
X125953952Y-118024780D01*
X125953955Y-118024781D01*
X126136445Y-118122323D01*
X126296402Y-118253598D01*
X126427677Y-118413555D01*
X126525219Y-118596045D01*
X126525220Y-118596048D01*
X126525221Y-118596050D01*
X126585127Y-118793534D01*
X126585290Y-118794072D01*
X126605572Y-119000000D01*
X126585290Y-119205928D01*
X126585289Y-119205931D01*
X126585289Y-119205932D01*
X126551711Y-119316625D01*
X126525219Y-119403955D01*
X126427677Y-119586445D01*
X126296402Y-119746402D01*
X126136445Y-119877677D01*
X125953955Y-119975219D01*
X125953952Y-119975220D01*
X125953950Y-119975221D01*
X125755932Y-120035289D01*
X125755931Y-120035289D01*
X125755928Y-120035290D01*
X125601601Y-120050490D01*
X125498399Y-120050490D01*
X125344072Y-120035290D01*
X125344069Y-120035289D01*
X125344068Y-120035289D01*
X125146050Y-119975221D01*
X125146048Y-119975220D01*
X125146045Y-119975219D01*
X124963555Y-119877677D01*
X124803598Y-119746402D01*
X124672323Y-119586445D01*
X124574781Y-119403955D01*
X124548290Y-119316625D01*
X124514711Y-119205932D01*
X124514711Y-119205931D01*
X124514710Y-119205928D01*
X124494428Y-119000000D01*
X124514710Y-118794072D01*
X124514873Y-118793534D01*
X124574779Y-118596050D01*
X124574780Y-118596048D01*
X124574781Y-118596045D01*
X124672323Y-118413555D01*
X124803598Y-118253598D01*
X124963555Y-118122323D01*
X125146045Y-118024781D01*
X125146048Y-118024780D01*
X125146050Y-118024779D01*
X125344068Y-117964711D01*
X125344069Y-117964711D01*
X125344072Y-117964710D01*
X125498399Y-117949510D01*
X125601601Y-117949510D01*
X125755928Y-117964710D01*
X125755928Y-117964710D01*
G37*
G36*
X139300490Y-120050490D02*
X137199510Y-120050490D01*
X137199510Y-117949510D01*
X139300490Y-117949510D01*
X139300490Y-120050490D01*
X139300490Y-120050490D01*
G37*
G36*
X128295928Y-117964710D02*
X128295931Y-117964711D01*
X128295932Y-117964711D01*
X128493950Y-118024779D01*
X128493952Y-118024780D01*
X128493955Y-118024781D01*
X128676445Y-118122323D01*
X128836402Y-118253598D01*
X128967677Y-118413555D01*
X129065219Y-118596045D01*
X129065220Y-118596048D01*
X129065221Y-118596050D01*
X129125127Y-118793534D01*
X129125290Y-118794072D01*
X129145572Y-119000000D01*
X129125290Y-119205928D01*
X129125289Y-119205931D01*
X129125289Y-119205932D01*
X129091711Y-119316625D01*
X129065219Y-119403955D01*
X128967677Y-119586445D01*
X128836402Y-119746402D01*
X128676445Y-119877677D01*
X128493955Y-119975219D01*
X128493952Y-119975220D01*
X128493950Y-119975221D01*
X128295932Y-120035289D01*
X128295931Y-120035289D01*
X128295928Y-120035290D01*
X128141601Y-120050490D01*
X128038399Y-120050490D01*
X127884072Y-120035290D01*
X127884069Y-120035289D01*
X127884068Y-120035289D01*
X127686050Y-119975221D01*
X127686048Y-119975220D01*
X127686045Y-119975219D01*
X127503555Y-119877677D01*
X127343598Y-119746402D01*
X127212323Y-119586445D01*
X127114781Y-119403955D01*
X127088290Y-119316625D01*
X127054711Y-119205932D01*
X127054711Y-119205931D01*
X127054710Y-119205928D01*
X127034428Y-119000000D01*
X127054710Y-118794072D01*
X127054873Y-118793534D01*
X127114779Y-118596050D01*
X127114780Y-118596048D01*
X127114781Y-118596045D01*
X127212323Y-118413555D01*
X127343598Y-118253598D01*
X127503555Y-118122323D01*
X127686045Y-118024781D01*
X127686048Y-118024780D01*
X127686050Y-118024779D01*
X127884068Y-117964711D01*
X127884069Y-117964711D01*
X127884072Y-117964710D01*
X128038399Y-117949510D01*
X128141601Y-117949510D01*
X128295928Y-117964710D01*
X128295928Y-117964710D01*
G37*
G36*
X130835928Y-117964710D02*
X130835931Y-117964711D01*
X130835932Y-117964711D01*
X131033950Y-118024779D01*
X131033952Y-118024780D01*
X131033955Y-118024781D01*
X131216445Y-118122323D01*
X131376402Y-118253598D01*
X131507677Y-118413555D01*
X131605219Y-118596045D01*
X131605220Y-118596048D01*
X131605221Y-118596050D01*
X131665127Y-118793534D01*
X131665290Y-118794072D01*
X131685572Y-119000000D01*
X131665290Y-119205928D01*
X131665289Y-119205931D01*
X131665289Y-119205932D01*
X131631711Y-119316625D01*
X131605219Y-119403955D01*
X131507677Y-119586445D01*
X131376402Y-119746402D01*
X131216445Y-119877677D01*
X131033955Y-119975219D01*
X131033952Y-119975220D01*
X131033950Y-119975221D01*
X130835932Y-120035289D01*
X130835931Y-120035289D01*
X130835928Y-120035290D01*
X130681601Y-120050490D01*
X130578399Y-120050490D01*
X130424072Y-120035290D01*
X130424069Y-120035289D01*
X130424068Y-120035289D01*
X130226050Y-119975221D01*
X130226048Y-119975220D01*
X130226045Y-119975219D01*
X130043555Y-119877677D01*
X129883598Y-119746402D01*
X129752323Y-119586445D01*
X129654781Y-119403955D01*
X129628290Y-119316625D01*
X129594711Y-119205932D01*
X129594711Y-119205931D01*
X129594710Y-119205928D01*
X129574428Y-119000000D01*
X129594710Y-118794072D01*
X129594873Y-118793534D01*
X129654779Y-118596050D01*
X129654780Y-118596048D01*
X129654781Y-118596045D01*
X129752323Y-118413555D01*
X129883598Y-118253598D01*
X130043555Y-118122323D01*
X130226045Y-118024781D01*
X130226048Y-118024780D01*
X130226050Y-118024779D01*
X130424068Y-117964711D01*
X130424069Y-117964711D01*
X130424072Y-117964710D01*
X130578399Y-117949510D01*
X130681601Y-117949510D01*
X130835928Y-117964710D01*
X130835928Y-117964710D01*
G37*
G36*
X135915928Y-117964710D02*
X135915931Y-117964711D01*
X135915932Y-117964711D01*
X136113950Y-118024779D01*
X136113952Y-118024780D01*
X136113955Y-118024781D01*
X136296445Y-118122323D01*
X136456402Y-118253598D01*
X136587677Y-118413555D01*
X136685219Y-118596045D01*
X136685220Y-118596048D01*
X136685221Y-118596050D01*
X136745127Y-118793534D01*
X136745290Y-118794072D01*
X136765572Y-119000000D01*
X136745290Y-119205928D01*
X136745289Y-119205931D01*
X136745289Y-119205932D01*
X136711711Y-119316625D01*
X136685219Y-119403955D01*
X136587677Y-119586445D01*
X136456402Y-119746402D01*
X136296445Y-119877677D01*
X136113955Y-119975219D01*
X136113952Y-119975220D01*
X136113950Y-119975221D01*
X135915932Y-120035289D01*
X135915931Y-120035289D01*
X135915928Y-120035290D01*
X135761601Y-120050490D01*
X135658399Y-120050490D01*
X135504072Y-120035290D01*
X135504069Y-120035289D01*
X135504068Y-120035289D01*
X135306050Y-119975221D01*
X135306048Y-119975220D01*
X135306045Y-119975219D01*
X135123555Y-119877677D01*
X134963598Y-119746402D01*
X134832323Y-119586445D01*
X134734781Y-119403955D01*
X134708290Y-119316625D01*
X134674711Y-119205932D01*
X134674711Y-119205931D01*
X134674710Y-119205928D01*
X134654428Y-119000000D01*
X134674710Y-118794072D01*
X134674873Y-118793534D01*
X134734779Y-118596050D01*
X134734780Y-118596048D01*
X134734781Y-118596045D01*
X134832323Y-118413555D01*
X134963598Y-118253598D01*
X135123555Y-118122323D01*
X135306045Y-118024781D01*
X135306048Y-118024780D01*
X135306050Y-118024779D01*
X135504068Y-117964711D01*
X135504069Y-117964711D01*
X135504072Y-117964710D01*
X135658399Y-117949510D01*
X135761601Y-117949510D01*
X135915928Y-117964710D01*
X135915928Y-117964710D01*
G37*
G36*
X133375928Y-117964710D02*
X133375931Y-117964711D01*
X133375932Y-117964711D01*
X133573950Y-118024779D01*
X133573952Y-118024780D01*
X133573955Y-118024781D01*
X133756445Y-118122323D01*
X133916402Y-118253598D01*
X134047677Y-118413555D01*
X134145219Y-118596045D01*
X134145220Y-118596048D01*
X134145221Y-118596050D01*
X134205127Y-118793534D01*
X134205290Y-118794072D01*
X134225572Y-119000000D01*
X134205290Y-119205928D01*
X134205289Y-119205931D01*
X134205289Y-119205932D01*
X134171711Y-119316625D01*
X134145219Y-119403955D01*
X134047677Y-119586445D01*
X133916402Y-119746402D01*
X133756445Y-119877677D01*
X133573955Y-119975219D01*
X133573952Y-119975220D01*
X133573950Y-119975221D01*
X133375932Y-120035289D01*
X133375931Y-120035289D01*
X133375928Y-120035290D01*
X133221601Y-120050490D01*
X133118399Y-120050490D01*
X132964072Y-120035290D01*
X132964069Y-120035289D01*
X132964068Y-120035289D01*
X132766050Y-119975221D01*
X132766048Y-119975220D01*
X132766045Y-119975219D01*
X132583555Y-119877677D01*
X132423598Y-119746402D01*
X132292323Y-119586445D01*
X132194781Y-119403955D01*
X132168290Y-119316625D01*
X132134711Y-119205932D01*
X132134711Y-119205931D01*
X132134710Y-119205928D01*
X132114428Y-119000000D01*
X132134710Y-118794072D01*
X132134873Y-118793534D01*
X132194779Y-118596050D01*
X132194780Y-118596048D01*
X132194781Y-118596045D01*
X132292323Y-118413555D01*
X132423598Y-118253598D01*
X132583555Y-118122323D01*
X132766045Y-118024781D01*
X132766048Y-118024780D01*
X132766050Y-118024779D01*
X132964068Y-117964711D01*
X132964069Y-117964711D01*
X132964072Y-117964710D01*
X133118399Y-117949510D01*
X133221601Y-117949510D01*
X133375928Y-117964710D01*
X133375928Y-117964710D01*
G37*
G36*
X155150442Y-118245518D02*
X155216627Y-118252037D01*
X155329853Y-118286384D01*
X155386467Y-118303557D01*
X155435988Y-118330027D01*
X155542991Y-118387222D01*
X155575078Y-118413555D01*
X155680186Y-118499814D01*
X155759164Y-118596050D01*
X155792778Y-118637009D01*
X155792779Y-118637011D01*
X155876443Y-118793533D01*
X155881038Y-118808681D01*
X155927963Y-118963373D01*
X155945359Y-119140000D01*
X155927963Y-119316627D01*
X155901474Y-119403950D01*
X155876443Y-119486467D01*
X155802348Y-119625087D01*
X155792778Y-119642991D01*
X155770634Y-119669973D01*
X155680186Y-119780186D01*
X155578729Y-119863448D01*
X155542991Y-119892778D01*
X155542989Y-119892779D01*
X155386467Y-119976443D01*
X155329853Y-119993616D01*
X155216627Y-120027963D01*
X155150442Y-120034482D01*
X155084260Y-120041000D01*
X154995740Y-120041000D01*
X154929558Y-120034482D01*
X154863373Y-120027963D01*
X154750147Y-119993616D01*
X154693533Y-119976443D01*
X154537011Y-119892779D01*
X154537009Y-119892778D01*
X154501271Y-119863448D01*
X154399814Y-119780186D01*
X154309366Y-119669973D01*
X154287222Y-119642991D01*
X154277652Y-119625087D01*
X154203557Y-119486467D01*
X154178526Y-119403950D01*
X154152037Y-119316627D01*
X154134641Y-119140000D01*
X154152037Y-118963373D01*
X154198962Y-118808681D01*
X154203557Y-118793533D01*
X154287221Y-118637011D01*
X154287222Y-118637009D01*
X154320836Y-118596050D01*
X154399814Y-118499814D01*
X154504922Y-118413555D01*
X154537009Y-118387222D01*
X154644012Y-118330027D01*
X154693533Y-118303557D01*
X154750147Y-118286384D01*
X154863373Y-118252037D01*
X154929558Y-118245518D01*
X154995740Y-118239000D01*
X155084260Y-118239000D01*
X155150442Y-118245518D01*
X155150442Y-118245518D01*
G37*
G36*
X152610442Y-118245518D02*
X152676627Y-118252037D01*
X152789853Y-118286384D01*
X152846467Y-118303557D01*
X152895988Y-118330027D01*
X153002991Y-118387222D01*
X153035078Y-118413555D01*
X153140186Y-118499814D01*
X153219164Y-118596050D01*
X153252778Y-118637009D01*
X153252779Y-118637011D01*
X153336443Y-118793533D01*
X153341038Y-118808681D01*
X153387963Y-118963373D01*
X153405359Y-119140000D01*
X153387963Y-119316627D01*
X153361474Y-119403950D01*
X153336443Y-119486467D01*
X153262348Y-119625087D01*
X153252778Y-119642991D01*
X153230634Y-119669973D01*
X153140186Y-119780186D01*
X153038729Y-119863448D01*
X153002991Y-119892778D01*
X153002989Y-119892779D01*
X152846467Y-119976443D01*
X152789853Y-119993616D01*
X152676627Y-120027963D01*
X152610442Y-120034482D01*
X152544260Y-120041000D01*
X152455740Y-120041000D01*
X152389558Y-120034482D01*
X152323373Y-120027963D01*
X152210147Y-119993616D01*
X152153533Y-119976443D01*
X151997011Y-119892779D01*
X151997009Y-119892778D01*
X151961271Y-119863448D01*
X151859814Y-119780186D01*
X151769366Y-119669973D01*
X151747222Y-119642991D01*
X151737652Y-119625087D01*
X151663557Y-119486467D01*
X151638526Y-119403950D01*
X151612037Y-119316627D01*
X151594641Y-119140000D01*
X151612037Y-118963373D01*
X151658962Y-118808681D01*
X151663557Y-118793533D01*
X151747221Y-118637011D01*
X151747222Y-118637009D01*
X151780836Y-118596050D01*
X151859814Y-118499814D01*
X151964922Y-118413555D01*
X151997009Y-118387222D01*
X152104012Y-118330027D01*
X152153533Y-118303557D01*
X152210147Y-118286384D01*
X152323373Y-118252037D01*
X152389558Y-118245518D01*
X152455740Y-118239000D01*
X152544260Y-118239000D01*
X152610442Y-118245518D01*
X152610442Y-118245518D01*
G37*
G36*
X155150442Y-115705518D02*
X155216627Y-115712037D01*
X155329853Y-115746384D01*
X155386467Y-115763557D01*
X155525087Y-115837652D01*
X155542991Y-115847222D01*
X155578729Y-115876552D01*
X155680186Y-115959814D01*
X155763448Y-116061271D01*
X155792778Y-116097009D01*
X155792779Y-116097011D01*
X155876443Y-116253533D01*
X155876443Y-116253534D01*
X155927963Y-116423373D01*
X155945359Y-116600000D01*
X155927963Y-116776627D01*
X155893616Y-116889853D01*
X155876443Y-116946467D01*
X155821637Y-117049000D01*
X155792778Y-117102991D01*
X155763448Y-117138729D01*
X155680186Y-117240186D01*
X155587400Y-117316332D01*
X155542991Y-117352778D01*
X155542989Y-117352779D01*
X155386467Y-117436443D01*
X155329853Y-117453616D01*
X155216627Y-117487963D01*
X155150442Y-117494482D01*
X155084260Y-117501000D01*
X154995740Y-117501000D01*
X154929558Y-117494482D01*
X154863373Y-117487963D01*
X154750147Y-117453616D01*
X154693533Y-117436443D01*
X154537011Y-117352779D01*
X154537009Y-117352778D01*
X154492600Y-117316332D01*
X154399814Y-117240186D01*
X154316552Y-117138729D01*
X154287222Y-117102991D01*
X154258363Y-117049000D01*
X154203557Y-116946467D01*
X154186384Y-116889853D01*
X154152037Y-116776627D01*
X154134641Y-116600000D01*
X154152037Y-116423373D01*
X154203557Y-116253534D01*
X154203557Y-116253533D01*
X154287221Y-116097011D01*
X154287222Y-116097009D01*
X154316552Y-116061271D01*
X154399814Y-115959814D01*
X154501271Y-115876552D01*
X154537009Y-115847222D01*
X154554913Y-115837652D01*
X154693533Y-115763557D01*
X154750147Y-115746384D01*
X154863373Y-115712037D01*
X154929558Y-115705518D01*
X154995740Y-115699000D01*
X155084260Y-115699000D01*
X155150442Y-115705518D01*
X155150442Y-115705518D01*
G37*
G36*
X153401000Y-117501000D02*
X151599000Y-117501000D01*
X151599000Y-115699000D01*
X153401000Y-115699000D01*
X153401000Y-117501000D01*
X153401000Y-117501000D01*
G37*
G36*
X170264499Y-114203445D02*
X170301993Y-114214819D01*
X170336557Y-114233294D01*
X170366847Y-114258153D01*
X170391706Y-114288443D01*
X170410181Y-114323007D01*
X170421555Y-114360501D01*
X170426000Y-114405638D01*
X170426000Y-115144362D01*
X170421555Y-115189499D01*
X170410181Y-115226993D01*
X170391706Y-115261557D01*
X170366847Y-115291847D01*
X170336557Y-115316706D01*
X170301993Y-115335181D01*
X170264499Y-115346555D01*
X170219362Y-115351000D01*
X169580638Y-115351000D01*
X169535501Y-115346555D01*
X169498007Y-115335181D01*
X169463443Y-115316706D01*
X169433153Y-115291847D01*
X169408294Y-115261557D01*
X169389819Y-115226993D01*
X169378445Y-115189499D01*
X169374000Y-115144362D01*
X169374000Y-114405638D01*
X169378445Y-114360501D01*
X169389819Y-114323007D01*
X169408294Y-114288443D01*
X169433153Y-114258153D01*
X169463443Y-114233294D01*
X169498007Y-114214819D01*
X169535501Y-114203445D01*
X169580638Y-114199000D01*
X170219362Y-114199000D01*
X170264499Y-114203445D01*
X170264499Y-114203445D01*
G37*
G36*
X170264499Y-112453445D02*
X170301993Y-112464819D01*
X170336557Y-112483294D01*
X170366847Y-112508153D01*
X170391706Y-112538443D01*
X170410181Y-112573007D01*
X170421555Y-112610501D01*
X170426000Y-112655638D01*
X170426000Y-113394362D01*
X170421555Y-113439499D01*
X170410181Y-113476993D01*
X170391706Y-113511557D01*
X170366847Y-113541847D01*
X170336557Y-113566706D01*
X170301993Y-113585181D01*
X170264499Y-113596555D01*
X170219362Y-113601000D01*
X169580638Y-113601000D01*
X169535501Y-113596555D01*
X169498007Y-113585181D01*
X169463443Y-113566706D01*
X169433153Y-113541847D01*
X169408294Y-113511557D01*
X169389819Y-113476993D01*
X169378445Y-113439499D01*
X169374000Y-113394362D01*
X169374000Y-112655638D01*
X169378445Y-112610501D01*
X169389819Y-112573007D01*
X169408294Y-112538443D01*
X169433153Y-112508153D01*
X169463443Y-112483294D01*
X169498007Y-112464819D01*
X169535501Y-112453445D01*
X169580638Y-112449000D01*
X170219362Y-112449000D01*
X170264499Y-112453445D01*
X170264499Y-112453445D01*
G37*
G36*
X153539499Y-112378445D02*
X153576993Y-112389819D01*
X153611557Y-112408294D01*
X153641847Y-112433153D01*
X153666706Y-112463443D01*
X153685181Y-112498007D01*
X153696555Y-112535501D01*
X153701000Y-112580638D01*
X153701000Y-113219362D01*
X153696555Y-113264499D01*
X153685181Y-113301993D01*
X153666706Y-113336557D01*
X153641847Y-113366847D01*
X153611557Y-113391706D01*
X153576993Y-113410181D01*
X153539499Y-113421555D01*
X153494362Y-113426000D01*
X152755638Y-113426000D01*
X152710501Y-113421555D01*
X152673007Y-113410181D01*
X152638443Y-113391706D01*
X152608153Y-113366847D01*
X152583294Y-113336557D01*
X152564819Y-113301993D01*
X152553445Y-113264499D01*
X152549000Y-113219362D01*
X152549000Y-112580638D01*
X152553445Y-112535501D01*
X152564819Y-112498007D01*
X152583294Y-112463443D01*
X152608153Y-112433153D01*
X152638443Y-112408294D01*
X152673007Y-112389819D01*
X152710501Y-112378445D01*
X152755638Y-112374000D01*
X153494362Y-112374000D01*
X153539499Y-112378445D01*
X153539499Y-112378445D01*
G37*
G36*
X155289499Y-112378445D02*
X155326993Y-112389819D01*
X155361557Y-112408294D01*
X155391847Y-112433153D01*
X155416706Y-112463443D01*
X155435181Y-112498007D01*
X155446555Y-112535501D01*
X155451000Y-112580638D01*
X155451000Y-113219362D01*
X155446555Y-113264499D01*
X155435181Y-113301993D01*
X155416706Y-113336557D01*
X155391847Y-113366847D01*
X155361557Y-113391706D01*
X155326993Y-113410181D01*
X155289499Y-113421555D01*
X155244362Y-113426000D01*
X154505638Y-113426000D01*
X154460501Y-113421555D01*
X154423007Y-113410181D01*
X154388443Y-113391706D01*
X154358153Y-113366847D01*
X154333294Y-113336557D01*
X154314819Y-113301993D01*
X154303445Y-113264499D01*
X154299000Y-113219362D01*
X154299000Y-112580638D01*
X154303445Y-112535501D01*
X154314819Y-112498007D01*
X154333294Y-112463443D01*
X154358153Y-112433153D01*
X154388443Y-112408294D01*
X154423007Y-112389819D01*
X154460501Y-112378445D01*
X154505638Y-112374000D01*
X155244362Y-112374000D01*
X155289499Y-112378445D01*
X155289499Y-112378445D01*
G37*
G36*
X138741918Y-112196740D02*
X130089918Y-112196740D01*
X130089918Y-110594740D01*
X138741918Y-110594740D01*
X138741918Y-112196740D01*
X138741918Y-112196740D01*
G37*
G36*
X140916918Y-110021740D02*
X139314918Y-110021740D01*
X139314918Y-101369740D01*
X140916918Y-101369740D01*
X140916918Y-110021740D01*
X140916918Y-110021740D01*
G37*
G36*
X129516918Y-110021740D02*
X127914918Y-110021740D01*
X127914918Y-101369740D01*
X129516918Y-101369740D01*
X129516918Y-110021740D01*
X129516918Y-110021740D01*
G37*
G36*
X145176765Y-108503445D02*
X145214259Y-108514819D01*
X145248823Y-108533294D01*
X145279113Y-108558153D01*
X145303972Y-108588443D01*
X145322447Y-108623007D01*
X145333821Y-108660501D01*
X145338266Y-108705638D01*
X145338266Y-109444362D01*
X145333821Y-109489499D01*
X145322447Y-109526993D01*
X145303972Y-109561557D01*
X145279113Y-109591847D01*
X145248823Y-109616706D01*
X145214259Y-109635181D01*
X145176765Y-109646555D01*
X145131628Y-109651000D01*
X144492904Y-109651000D01*
X144447767Y-109646555D01*
X144410273Y-109635181D01*
X144375709Y-109616706D01*
X144345419Y-109591847D01*
X144320560Y-109561557D01*
X144302085Y-109526993D01*
X144290711Y-109489499D01*
X144286266Y-109444362D01*
X144286266Y-108705638D01*
X144290711Y-108660501D01*
X144302085Y-108623007D01*
X144320560Y-108588443D01*
X144345419Y-108558153D01*
X144375709Y-108533294D01*
X144410273Y-108514819D01*
X144447767Y-108503445D01*
X144492904Y-108499000D01*
X145131628Y-108499000D01*
X145176765Y-108503445D01*
X145176765Y-108503445D01*
G37*
G36*
X148955782Y-109584344D02*
X146453782Y-109584344D01*
X146453782Y-107582344D01*
X148955782Y-107582344D01*
X148955782Y-109584344D01*
X148955782Y-109584344D01*
G37*
G36*
X145176765Y-106753445D02*
X145214259Y-106764819D01*
X145248823Y-106783294D01*
X145279113Y-106808153D01*
X145303972Y-106838443D01*
X145322447Y-106873007D01*
X145333821Y-106910501D01*
X145338266Y-106955638D01*
X145338266Y-107694362D01*
X145333821Y-107739499D01*
X145322447Y-107776993D01*
X145303972Y-107811557D01*
X145279113Y-107841847D01*
X145248823Y-107866706D01*
X145214259Y-107885181D01*
X145176765Y-107896555D01*
X145131628Y-107901000D01*
X144492904Y-107901000D01*
X144447767Y-107896555D01*
X144410273Y-107885181D01*
X144375709Y-107866706D01*
X144345419Y-107841847D01*
X144320560Y-107811557D01*
X144302085Y-107776993D01*
X144290711Y-107739499D01*
X144286266Y-107694362D01*
X144286266Y-106955638D01*
X144290711Y-106910501D01*
X144302085Y-106873007D01*
X144320560Y-106838443D01*
X144345419Y-106808153D01*
X144375709Y-106783294D01*
X144410273Y-106764819D01*
X144447767Y-106753445D01*
X144492904Y-106749000D01*
X145131628Y-106749000D01*
X145176765Y-106753445D01*
X145176765Y-106753445D01*
G37*
G36*
X180023036Y-107606421D02*
X179121036Y-107606421D01*
X179121036Y-106604421D01*
X180023036Y-106604421D01*
X180023036Y-107606421D01*
X180023036Y-107606421D01*
G37*
G36*
X178123036Y-107606421D02*
X177221036Y-107606421D01*
X177221036Y-106604421D01*
X178123036Y-106604421D01*
X178123036Y-107606421D01*
X178123036Y-107606421D01*
G37*
G36*
X172701000Y-107601000D02*
X171699000Y-107601000D01*
X171699000Y-106699000D01*
X172701000Y-106699000D01*
X172701000Y-107601000D01*
X172701000Y-107601000D01*
G37*
G36*
X167851000Y-107601000D02*
X166949000Y-107601000D01*
X166949000Y-106599000D01*
X167851000Y-106599000D01*
X167851000Y-107601000D01*
X167851000Y-107601000D01*
G37*
G36*
X170701000Y-106651000D02*
X169699000Y-106651000D01*
X169699000Y-105749000D01*
X170701000Y-105749000D01*
X170701000Y-106651000D01*
X170701000Y-106651000D01*
G37*
G36*
X142464499Y-105103445D02*
X142501993Y-105114819D01*
X142536557Y-105133294D01*
X142566847Y-105158153D01*
X142591706Y-105188443D01*
X142610181Y-105223007D01*
X142621555Y-105260501D01*
X142626000Y-105305638D01*
X142626000Y-106044362D01*
X142621555Y-106089499D01*
X142610181Y-106126993D01*
X142591706Y-106161557D01*
X142566847Y-106191847D01*
X142536557Y-106216706D01*
X142501993Y-106235181D01*
X142464499Y-106246555D01*
X142419362Y-106251000D01*
X141780638Y-106251000D01*
X141735501Y-106246555D01*
X141698007Y-106235181D01*
X141663443Y-106216706D01*
X141633153Y-106191847D01*
X141608294Y-106161557D01*
X141589819Y-106126993D01*
X141578445Y-106089499D01*
X141574000Y-106044362D01*
X141574000Y-105305638D01*
X141578445Y-105260501D01*
X141589819Y-105223007D01*
X141608294Y-105188443D01*
X141633153Y-105158153D01*
X141663443Y-105133294D01*
X141698007Y-105114819D01*
X141735501Y-105103445D01*
X141780638Y-105099000D01*
X142419362Y-105099000D01*
X142464499Y-105103445D01*
X142464499Y-105103445D01*
G37*
G36*
X145176765Y-105065720D02*
X145214259Y-105077094D01*
X145248823Y-105095569D01*
X145279113Y-105120428D01*
X145303972Y-105150718D01*
X145322447Y-105185282D01*
X145333821Y-105222776D01*
X145338266Y-105267913D01*
X145338266Y-106006637D01*
X145333821Y-106051774D01*
X145322447Y-106089268D01*
X145303972Y-106123832D01*
X145279113Y-106154122D01*
X145248823Y-106178981D01*
X145214259Y-106197456D01*
X145176765Y-106208830D01*
X145131628Y-106213275D01*
X144492904Y-106213275D01*
X144447767Y-106208830D01*
X144410273Y-106197456D01*
X144375709Y-106178981D01*
X144345419Y-106154122D01*
X144320560Y-106123832D01*
X144302085Y-106089268D01*
X144290711Y-106051774D01*
X144286266Y-106006637D01*
X144286266Y-105267913D01*
X144290711Y-105222776D01*
X144302085Y-105185282D01*
X144320560Y-105150718D01*
X144345419Y-105120428D01*
X144375709Y-105095569D01*
X144410273Y-105077094D01*
X144447767Y-105065720D01*
X144492904Y-105061275D01*
X145131628Y-105061275D01*
X145176765Y-105065720D01*
X145176765Y-105065720D01*
G37*
G36*
X172701000Y-105701000D02*
X171699000Y-105701000D01*
X171699000Y-104799000D01*
X172701000Y-104799000D01*
X172701000Y-105701000D01*
X172701000Y-105701000D01*
G37*
G36*
X179073036Y-105606421D02*
X178171036Y-105606421D01*
X178171036Y-104604421D01*
X179073036Y-104604421D01*
X179073036Y-105606421D01*
X179073036Y-105606421D01*
G37*
G36*
X166901000Y-105601000D02*
X165999000Y-105601000D01*
X165999000Y-104599000D01*
X166901000Y-104599000D01*
X166901000Y-105601000D01*
X166901000Y-105601000D01*
G37*
G36*
X168801000Y-105601000D02*
X167899000Y-105601000D01*
X167899000Y-104599000D01*
X168801000Y-104599000D01*
X168801000Y-105601000D01*
X168801000Y-105601000D01*
G37*
G36*
X148955782Y-105484344D02*
X146453782Y-105484344D01*
X146453782Y-103482344D01*
X148955782Y-103482344D01*
X148955782Y-105484344D01*
X148955782Y-105484344D01*
G37*
G36*
X142464499Y-103353445D02*
X142501993Y-103364819D01*
X142536557Y-103383294D01*
X142566847Y-103408153D01*
X142591706Y-103438443D01*
X142610181Y-103473007D01*
X142621555Y-103510501D01*
X142626000Y-103555638D01*
X142626000Y-104294362D01*
X142621555Y-104339499D01*
X142610181Y-104376993D01*
X142591706Y-104411557D01*
X142566847Y-104441847D01*
X142536557Y-104466706D01*
X142501993Y-104485181D01*
X142464499Y-104496555D01*
X142419362Y-104501000D01*
X141780638Y-104501000D01*
X141735501Y-104496555D01*
X141698007Y-104485181D01*
X141663443Y-104466706D01*
X141633153Y-104441847D01*
X141608294Y-104411557D01*
X141589819Y-104376993D01*
X141578445Y-104339499D01*
X141574000Y-104294362D01*
X141574000Y-103555638D01*
X141578445Y-103510501D01*
X141589819Y-103473007D01*
X141608294Y-103438443D01*
X141633153Y-103408153D01*
X141663443Y-103383294D01*
X141698007Y-103364819D01*
X141735501Y-103353445D01*
X141780638Y-103349000D01*
X142419362Y-103349000D01*
X142464499Y-103353445D01*
X142464499Y-103353445D01*
G37*
G36*
X145176765Y-103315720D02*
X145214259Y-103327094D01*
X145248823Y-103345569D01*
X145279113Y-103370428D01*
X145303972Y-103400718D01*
X145322447Y-103435282D01*
X145333821Y-103472776D01*
X145338266Y-103517913D01*
X145338266Y-104256637D01*
X145333821Y-104301774D01*
X145322447Y-104339268D01*
X145303972Y-104373832D01*
X145279113Y-104404122D01*
X145248823Y-104428981D01*
X145214259Y-104447456D01*
X145176765Y-104458830D01*
X145131628Y-104463275D01*
X144492904Y-104463275D01*
X144447767Y-104458830D01*
X144410273Y-104447456D01*
X144375709Y-104428981D01*
X144345419Y-104404122D01*
X144320560Y-104373832D01*
X144302085Y-104339268D01*
X144290711Y-104301774D01*
X144286266Y-104256637D01*
X144286266Y-103517913D01*
X144290711Y-103472776D01*
X144302085Y-103435282D01*
X144320560Y-103400718D01*
X144345419Y-103370428D01*
X144375709Y-103345569D01*
X144410273Y-103327094D01*
X144447767Y-103315720D01*
X144492904Y-103311275D01*
X145131628Y-103311275D01*
X145176765Y-103315720D01*
X145176765Y-103315720D01*
G37*
G36*
X138741918Y-100796740D02*
X130089918Y-100796740D01*
X130089918Y-99194740D01*
X138741918Y-99194740D01*
X138741918Y-100796740D01*
X138741918Y-100796740D01*
G37*
G36*
X168683635Y-94511019D02*
X168864903Y-94547075D01*
X169092571Y-94641378D01*
X169296542Y-94777668D01*
X169297469Y-94778287D01*
X169471713Y-94952531D01*
X169471715Y-94952534D01*
X169608622Y-95157429D01*
X169702925Y-95385097D01*
X169751000Y-95626787D01*
X169751000Y-95873213D01*
X169702925Y-96114903D01*
X169608622Y-96342571D01*
X169472332Y-96546542D01*
X169471713Y-96547469D01*
X169297469Y-96721713D01*
X169297466Y-96721715D01*
X169092571Y-96858622D01*
X168864903Y-96952925D01*
X168683636Y-96988981D01*
X168623214Y-97001000D01*
X168376786Y-97001000D01*
X168316365Y-96988981D01*
X168135097Y-96952925D01*
X167907429Y-96858622D01*
X167702534Y-96721715D01*
X167702531Y-96721713D01*
X167528287Y-96547469D01*
X167527668Y-96546542D01*
X167391378Y-96342571D01*
X167297075Y-96114903D01*
X167249000Y-95873213D01*
X167249000Y-95626787D01*
X167297075Y-95385097D01*
X167391378Y-95157429D01*
X167528285Y-94952534D01*
X167528287Y-94952531D01*
X167702531Y-94778287D01*
X167703458Y-94777668D01*
X167907429Y-94641378D01*
X168135097Y-94547075D01*
X168316365Y-94511019D01*
X168376786Y-94499000D01*
X168623214Y-94499000D01*
X168683635Y-94511019D01*
X168683635Y-94511019D01*
G37*
G36*
X180183635Y-94511019D02*
X180364903Y-94547075D01*
X180592571Y-94641378D01*
X180796542Y-94777668D01*
X180797469Y-94778287D01*
X180971713Y-94952531D01*
X180971715Y-94952534D01*
X181108622Y-95157429D01*
X181202925Y-95385097D01*
X181251000Y-95626787D01*
X181251000Y-95873213D01*
X181202925Y-96114903D01*
X181108622Y-96342571D01*
X180972332Y-96546542D01*
X180971713Y-96547469D01*
X180797469Y-96721713D01*
X180797466Y-96721715D01*
X180592571Y-96858622D01*
X180364903Y-96952925D01*
X180183636Y-96988981D01*
X180123214Y-97001000D01*
X179876786Y-97001000D01*
X179816365Y-96988981D01*
X179635097Y-96952925D01*
X179407429Y-96858622D01*
X179202534Y-96721715D01*
X179202531Y-96721713D01*
X179028287Y-96547469D01*
X179027668Y-96546542D01*
X178891378Y-96342571D01*
X178797075Y-96114903D01*
X178749000Y-95873213D01*
X178749000Y-95626787D01*
X178797075Y-95385097D01*
X178891378Y-95157429D01*
X179028285Y-94952534D01*
X179028287Y-94952531D01*
X179202531Y-94778287D01*
X179203458Y-94777668D01*
X179407429Y-94641378D01*
X179635097Y-94547075D01*
X179816365Y-94511019D01*
X179876786Y-94499000D01*
X180123214Y-94499000D01*
X180183635Y-94511019D01*
X180183635Y-94511019D01*
G37*
G36*
X139772797Y-92303247D02*
X139808367Y-92314037D01*
X139841139Y-92331554D01*
X139869869Y-92355131D01*
X139893446Y-92383861D01*
X139910963Y-92416633D01*
X139921753Y-92452203D01*
X139926000Y-92495324D01*
X139926000Y-93779676D01*
X139921753Y-93822797D01*
X139910963Y-93858367D01*
X139893446Y-93891139D01*
X139869869Y-93919869D01*
X139841139Y-93943446D01*
X139808367Y-93960963D01*
X139772797Y-93971753D01*
X139729676Y-93976000D01*
X138670324Y-93976000D01*
X138627203Y-93971753D01*
X138591633Y-93960963D01*
X138558861Y-93943446D01*
X138530131Y-93919869D01*
X138506554Y-93891139D01*
X138489037Y-93858367D01*
X138478247Y-93822797D01*
X138474000Y-93779676D01*
X138474000Y-92495324D01*
X138478247Y-92452203D01*
X138489037Y-92416633D01*
X138506554Y-92383861D01*
X138530131Y-92355131D01*
X138558861Y-92331554D01*
X138591633Y-92314037D01*
X138627203Y-92303247D01*
X138670324Y-92299000D01*
X139729676Y-92299000D01*
X139772797Y-92303247D01*
X139772797Y-92303247D01*
G37*
G36*
X148210713Y-92233886D02*
X148248400Y-92245319D01*
X148283139Y-92263887D01*
X148313584Y-92288873D01*
X148338570Y-92319318D01*
X148357138Y-92354057D01*
X148368571Y-92391744D01*
X148373036Y-92437082D01*
X148373036Y-93273760D01*
X148368571Y-93319098D01*
X148357138Y-93356785D01*
X148338570Y-93391524D01*
X148313584Y-93421969D01*
X148283139Y-93446955D01*
X148248400Y-93465523D01*
X148210713Y-93476956D01*
X148165375Y-93481421D01*
X147078697Y-93481421D01*
X147033359Y-93476956D01*
X146995672Y-93465523D01*
X146960933Y-93446955D01*
X146930488Y-93421969D01*
X146905502Y-93391524D01*
X146886934Y-93356785D01*
X146875501Y-93319098D01*
X146871036Y-93273760D01*
X146871036Y-92437082D01*
X146875501Y-92391744D01*
X146886934Y-92354057D01*
X146905502Y-92319318D01*
X146930488Y-92288873D01*
X146960933Y-92263887D01*
X146995672Y-92245319D01*
X147033359Y-92233886D01*
X147078697Y-92229421D01*
X148165375Y-92229421D01*
X148210713Y-92233886D01*
X148210713Y-92233886D01*
G37*
G36*
X145710713Y-92233886D02*
X145748400Y-92245319D01*
X145783139Y-92263887D01*
X145813584Y-92288873D01*
X145838570Y-92319318D01*
X145857138Y-92354057D01*
X145868571Y-92391744D01*
X145873036Y-92437082D01*
X145873036Y-93273760D01*
X145868571Y-93319098D01*
X145857138Y-93356785D01*
X145838570Y-93391524D01*
X145813584Y-93421969D01*
X145783139Y-93446955D01*
X145748400Y-93465523D01*
X145710713Y-93476956D01*
X145665375Y-93481421D01*
X144578697Y-93481421D01*
X144533359Y-93476956D01*
X144495672Y-93465523D01*
X144460933Y-93446955D01*
X144430488Y-93421969D01*
X144405502Y-93391524D01*
X144386934Y-93356785D01*
X144375501Y-93319098D01*
X144371036Y-93273760D01*
X144371036Y-92437082D01*
X144375501Y-92391744D01*
X144386934Y-92354057D01*
X144405502Y-92319318D01*
X144430488Y-92288873D01*
X144460933Y-92263887D01*
X144495672Y-92245319D01*
X144533359Y-92233886D01*
X144578697Y-92229421D01*
X145665375Y-92229421D01*
X145710713Y-92233886D01*
X145710713Y-92233886D01*
G37*
G36*
X150386535Y-92158866D02*
X150424029Y-92170240D01*
X150458593Y-92188715D01*
X150488883Y-92213574D01*
X150513742Y-92243864D01*
X150532217Y-92278428D01*
X150543591Y-92315922D01*
X150548036Y-92361059D01*
X150548036Y-93099783D01*
X150543591Y-93144920D01*
X150532217Y-93182414D01*
X150513742Y-93216978D01*
X150488883Y-93247268D01*
X150458593Y-93272127D01*
X150424029Y-93290602D01*
X150386535Y-93301976D01*
X150341398Y-93306421D01*
X149702674Y-93306421D01*
X149657537Y-93301976D01*
X149620043Y-93290602D01*
X149585479Y-93272127D01*
X149555189Y-93247268D01*
X149530330Y-93216978D01*
X149511855Y-93182414D01*
X149500481Y-93144920D01*
X149496036Y-93099783D01*
X149496036Y-92361059D01*
X149500481Y-92315922D01*
X149511855Y-92278428D01*
X149530330Y-92243864D01*
X149555189Y-92213574D01*
X149585479Y-92188715D01*
X149620043Y-92170240D01*
X149657537Y-92158866D01*
X149702674Y-92154421D01*
X150341398Y-92154421D01*
X150386535Y-92158866D01*
X150386535Y-92158866D01*
G37*
G36*
X158986535Y-90703445D02*
X159024029Y-90714819D01*
X159058593Y-90733294D01*
X159088883Y-90758153D01*
X159113742Y-90788443D01*
X159132217Y-90823007D01*
X159143591Y-90860501D01*
X159148036Y-90905638D01*
X159148036Y-91644362D01*
X159143591Y-91689499D01*
X159132217Y-91726993D01*
X159113742Y-91761557D01*
X159088883Y-91791847D01*
X159058593Y-91816706D01*
X159024029Y-91835181D01*
X158986535Y-91846555D01*
X158941398Y-91851000D01*
X158302674Y-91851000D01*
X158257537Y-91846555D01*
X158220043Y-91835181D01*
X158185479Y-91816706D01*
X158155189Y-91791847D01*
X158130330Y-91761557D01*
X158111855Y-91726993D01*
X158100481Y-91689499D01*
X158096036Y-91644362D01*
X158096036Y-90905638D01*
X158100481Y-90860501D01*
X158111855Y-90823007D01*
X158130330Y-90788443D01*
X158155189Y-90758153D01*
X158185479Y-90733294D01*
X158220043Y-90714819D01*
X158257537Y-90703445D01*
X158302674Y-90699000D01*
X158941398Y-90699000D01*
X158986535Y-90703445D01*
X158986535Y-90703445D01*
G37*
G36*
X160586535Y-90703445D02*
X160624029Y-90714819D01*
X160658593Y-90733294D01*
X160688883Y-90758153D01*
X160713742Y-90788443D01*
X160732217Y-90823007D01*
X160743591Y-90860501D01*
X160748036Y-90905638D01*
X160748036Y-91644362D01*
X160743591Y-91689499D01*
X160732217Y-91726993D01*
X160713742Y-91761557D01*
X160688883Y-91791847D01*
X160658593Y-91816706D01*
X160624029Y-91835181D01*
X160586535Y-91846555D01*
X160541398Y-91851000D01*
X159902674Y-91851000D01*
X159857537Y-91846555D01*
X159820043Y-91835181D01*
X159785479Y-91816706D01*
X159755189Y-91791847D01*
X159730330Y-91761557D01*
X159711855Y-91726993D01*
X159700481Y-91689499D01*
X159696036Y-91644362D01*
X159696036Y-90905638D01*
X159700481Y-90860501D01*
X159711855Y-90823007D01*
X159730330Y-90788443D01*
X159755189Y-90758153D01*
X159785479Y-90733294D01*
X159820043Y-90714819D01*
X159857537Y-90703445D01*
X159902674Y-90699000D01*
X160541398Y-90699000D01*
X160586535Y-90703445D01*
X160586535Y-90703445D01*
G37*
G36*
X150386535Y-90408866D02*
X150424029Y-90420240D01*
X150458593Y-90438715D01*
X150488883Y-90463574D01*
X150513742Y-90493864D01*
X150532217Y-90528428D01*
X150543591Y-90565922D01*
X150548036Y-90611059D01*
X150548036Y-91349783D01*
X150543591Y-91394920D01*
X150532217Y-91432414D01*
X150513742Y-91466978D01*
X150488883Y-91497268D01*
X150458593Y-91522127D01*
X150424029Y-91540602D01*
X150386535Y-91551976D01*
X150341398Y-91556421D01*
X149702674Y-91556421D01*
X149657537Y-91551976D01*
X149620043Y-91540602D01*
X149585479Y-91522127D01*
X149555189Y-91497268D01*
X149530330Y-91466978D01*
X149511855Y-91432414D01*
X149500481Y-91394920D01*
X149496036Y-91349783D01*
X149496036Y-90611059D01*
X149500481Y-90565922D01*
X149511855Y-90528428D01*
X149530330Y-90493864D01*
X149555189Y-90463574D01*
X149585479Y-90438715D01*
X149620043Y-90420240D01*
X149657537Y-90408866D01*
X149702674Y-90404421D01*
X150341398Y-90404421D01*
X150386535Y-90408866D01*
X150386535Y-90408866D01*
G37*
G36*
X148210713Y-90183886D02*
X148248400Y-90195319D01*
X148283139Y-90213887D01*
X148313584Y-90238873D01*
X148338570Y-90269318D01*
X148357138Y-90304057D01*
X148368571Y-90341744D01*
X148373036Y-90387082D01*
X148373036Y-91223760D01*
X148368571Y-91269098D01*
X148357138Y-91306785D01*
X148338570Y-91341524D01*
X148313584Y-91371969D01*
X148283139Y-91396955D01*
X148248400Y-91415523D01*
X148210713Y-91426956D01*
X148165375Y-91431421D01*
X147078697Y-91431421D01*
X147033359Y-91426956D01*
X146995672Y-91415523D01*
X146960933Y-91396955D01*
X146930488Y-91371969D01*
X146905502Y-91341524D01*
X146886934Y-91306785D01*
X146875501Y-91269098D01*
X146871036Y-91223760D01*
X146871036Y-90387082D01*
X146875501Y-90341744D01*
X146886934Y-90304057D01*
X146905502Y-90269318D01*
X146930488Y-90238873D01*
X146960933Y-90213887D01*
X146995672Y-90195319D01*
X147033359Y-90183886D01*
X147078697Y-90179421D01*
X148165375Y-90179421D01*
X148210713Y-90183886D01*
X148210713Y-90183886D01*
G37*
G36*
X145710713Y-90183886D02*
X145748400Y-90195319D01*
X145783139Y-90213887D01*
X145813584Y-90238873D01*
X145838570Y-90269318D01*
X145857138Y-90304057D01*
X145868571Y-90341744D01*
X145873036Y-90387082D01*
X145873036Y-91223760D01*
X145868571Y-91269098D01*
X145857138Y-91306785D01*
X145838570Y-91341524D01*
X145813584Y-91371969D01*
X145783139Y-91396955D01*
X145748400Y-91415523D01*
X145710713Y-91426956D01*
X145665375Y-91431421D01*
X144578697Y-91431421D01*
X144533359Y-91426956D01*
X144495672Y-91415523D01*
X144460933Y-91396955D01*
X144430488Y-91371969D01*
X144405502Y-91341524D01*
X144386934Y-91306785D01*
X144375501Y-91269098D01*
X144371036Y-91223760D01*
X144371036Y-90387082D01*
X144375501Y-90341744D01*
X144386934Y-90304057D01*
X144405502Y-90269318D01*
X144430488Y-90238873D01*
X144460933Y-90213887D01*
X144495672Y-90195319D01*
X144533359Y-90183886D01*
X144578697Y-90179421D01*
X145665375Y-90179421D01*
X145710713Y-90183886D01*
X145710713Y-90183886D01*
G37*
G36*
X139772797Y-89428247D02*
X139808367Y-89439037D01*
X139841139Y-89456554D01*
X139869869Y-89480131D01*
X139893446Y-89508861D01*
X139910963Y-89541633D01*
X139921753Y-89577203D01*
X139926000Y-89620324D01*
X139926000Y-90904676D01*
X139921753Y-90947797D01*
X139910963Y-90983367D01*
X139893446Y-91016139D01*
X139869869Y-91044869D01*
X139841139Y-91068446D01*
X139808367Y-91085963D01*
X139772797Y-91096753D01*
X139729676Y-91101000D01*
X138670324Y-91101000D01*
X138627203Y-91096753D01*
X138591633Y-91085963D01*
X138558861Y-91068446D01*
X138530131Y-91044869D01*
X138506554Y-91016139D01*
X138489037Y-90983367D01*
X138478247Y-90947797D01*
X138474000Y-90904676D01*
X138474000Y-89620324D01*
X138478247Y-89577203D01*
X138489037Y-89541633D01*
X138506554Y-89508861D01*
X138530131Y-89480131D01*
X138558861Y-89456554D01*
X138591633Y-89439037D01*
X138627203Y-89428247D01*
X138670324Y-89424000D01*
X139729676Y-89424000D01*
X139772797Y-89428247D01*
X139772797Y-89428247D01*
G37*
G36*
X154052036Y-87785038D02*
X154054438Y-87809424D01*
X154061551Y-87832873D01*
X154072058Y-87858239D01*
X154098036Y-87988839D01*
X154098036Y-88122003D01*
X154072058Y-88252603D01*
X154061551Y-88277969D01*
X154054438Y-88301418D01*
X154052036Y-88325804D01*
X154052036Y-90955421D01*
X151592036Y-90955421D01*
X151592036Y-87125804D01*
X151589634Y-87101418D01*
X151582521Y-87077969D01*
X151572014Y-87052603D01*
X151546036Y-86922003D01*
X151546036Y-86788839D01*
X151572014Y-86658239D01*
X151582521Y-86632873D01*
X151589634Y-86609424D01*
X151592036Y-86585038D01*
X151592036Y-83955421D01*
X154052036Y-83955421D01*
X154052036Y-87785038D01*
X154052036Y-87785038D01*
G37*
G36*
X137564499Y-89803445D02*
X137601993Y-89814819D01*
X137636557Y-89833294D01*
X137666847Y-89858153D01*
X137691706Y-89888443D01*
X137710181Y-89923007D01*
X137721555Y-89960501D01*
X137726000Y-90005638D01*
X137726000Y-90744362D01*
X137721555Y-90789499D01*
X137710181Y-90826993D01*
X137691706Y-90861557D01*
X137666847Y-90891847D01*
X137636557Y-90916706D01*
X137601993Y-90935181D01*
X137564499Y-90946555D01*
X137519362Y-90951000D01*
X136880638Y-90951000D01*
X136835501Y-90946555D01*
X136798007Y-90935181D01*
X136763443Y-90916706D01*
X136733153Y-90891847D01*
X136708294Y-90861557D01*
X136689819Y-90826993D01*
X136678445Y-90789499D01*
X136674000Y-90744362D01*
X136674000Y-90005638D01*
X136678445Y-89960501D01*
X136689819Y-89923007D01*
X136708294Y-89888443D01*
X136733153Y-89858153D01*
X136763443Y-89833294D01*
X136798007Y-89814819D01*
X136835501Y-89803445D01*
X136880638Y-89799000D01*
X137519362Y-89799000D01*
X137564499Y-89803445D01*
X137564499Y-89803445D01*
G37*
G36*
X160586535Y-88953445D02*
X160624029Y-88964819D01*
X160658593Y-88983294D01*
X160688883Y-89008153D01*
X160713742Y-89038443D01*
X160732217Y-89073007D01*
X160743591Y-89110501D01*
X160748036Y-89155638D01*
X160748036Y-89894362D01*
X160743591Y-89939499D01*
X160732217Y-89976993D01*
X160713742Y-90011557D01*
X160688883Y-90041847D01*
X160658593Y-90066706D01*
X160624029Y-90085181D01*
X160586535Y-90096555D01*
X160541398Y-90101000D01*
X159902674Y-90101000D01*
X159857537Y-90096555D01*
X159820043Y-90085181D01*
X159785479Y-90066706D01*
X159755189Y-90041847D01*
X159730330Y-90011557D01*
X159711855Y-89976993D01*
X159700481Y-89939499D01*
X159696036Y-89894362D01*
X159696036Y-89155638D01*
X159700481Y-89110501D01*
X159711855Y-89073007D01*
X159730330Y-89038443D01*
X159755189Y-89008153D01*
X159785479Y-88983294D01*
X159820043Y-88964819D01*
X159857537Y-88953445D01*
X159902674Y-88949000D01*
X160541398Y-88949000D01*
X160586535Y-88953445D01*
X160586535Y-88953445D01*
G37*
G36*
X158986535Y-88953445D02*
X159024029Y-88964819D01*
X159058593Y-88983294D01*
X159088883Y-89008153D01*
X159113742Y-89038443D01*
X159132217Y-89073007D01*
X159143591Y-89110501D01*
X159148036Y-89155638D01*
X159148036Y-89894362D01*
X159143591Y-89939499D01*
X159132217Y-89976993D01*
X159113742Y-90011557D01*
X159088883Y-90041847D01*
X159058593Y-90066706D01*
X159024029Y-90085181D01*
X158986535Y-90096555D01*
X158941398Y-90101000D01*
X158302674Y-90101000D01*
X158257537Y-90096555D01*
X158220043Y-90085181D01*
X158185479Y-90066706D01*
X158155189Y-90041847D01*
X158130330Y-90011557D01*
X158111855Y-89976993D01*
X158100481Y-89939499D01*
X158096036Y-89894362D01*
X158096036Y-89155638D01*
X158100481Y-89110501D01*
X158111855Y-89073007D01*
X158130330Y-89038443D01*
X158155189Y-89008153D01*
X158185479Y-88983294D01*
X158220043Y-88964819D01*
X158257537Y-88953445D01*
X158302674Y-88949000D01*
X158941398Y-88949000D01*
X158986535Y-88953445D01*
X158986535Y-88953445D01*
G37*
G36*
X150867036Y-89600421D02*
X149177036Y-89600421D01*
X149177036Y-89210421D01*
X150867036Y-89210421D01*
X150867036Y-89600421D01*
X150867036Y-89600421D01*
G37*
G36*
X156467036Y-89600421D02*
X154777036Y-89600421D01*
X154777036Y-89210421D01*
X156467036Y-89210421D01*
X156467036Y-89600421D01*
X156467036Y-89600421D01*
G37*
G36*
X137564499Y-88053445D02*
X137601993Y-88064819D01*
X137636557Y-88083294D01*
X137666847Y-88108153D01*
X137691706Y-88138443D01*
X137710181Y-88173007D01*
X137721555Y-88210501D01*
X137726000Y-88255638D01*
X137726000Y-88994362D01*
X137721555Y-89039499D01*
X137710181Y-89076993D01*
X137691706Y-89111557D01*
X137666847Y-89141847D01*
X137636557Y-89166706D01*
X137601993Y-89185181D01*
X137564499Y-89196555D01*
X137519362Y-89201000D01*
X136880638Y-89201000D01*
X136835501Y-89196555D01*
X136798007Y-89185181D01*
X136763443Y-89166706D01*
X136733153Y-89141847D01*
X136708294Y-89111557D01*
X136689819Y-89076993D01*
X136678445Y-89039499D01*
X136674000Y-88994362D01*
X136674000Y-88255638D01*
X136678445Y-88210501D01*
X136689819Y-88173007D01*
X136708294Y-88138443D01*
X136733153Y-88108153D01*
X136763443Y-88083294D01*
X136798007Y-88064819D01*
X136835501Y-88053445D01*
X136880638Y-88049000D01*
X137519362Y-88049000D01*
X137564499Y-88053445D01*
X137564499Y-88053445D01*
G37*
G36*
X146061535Y-87933866D02*
X146099029Y-87945240D01*
X146133593Y-87963715D01*
X146163883Y-87988574D01*
X146188742Y-88018864D01*
X146207217Y-88053428D01*
X146218591Y-88090922D01*
X146223036Y-88136059D01*
X146223036Y-88774783D01*
X146218591Y-88819920D01*
X146207217Y-88857414D01*
X146188742Y-88891978D01*
X146163883Y-88922268D01*
X146133593Y-88947127D01*
X146099029Y-88965602D01*
X146061535Y-88976976D01*
X146016398Y-88981421D01*
X145277674Y-88981421D01*
X145232537Y-88976976D01*
X145195043Y-88965602D01*
X145160479Y-88947127D01*
X145130189Y-88922268D01*
X145105330Y-88891978D01*
X145086855Y-88857414D01*
X145075481Y-88819920D01*
X145071036Y-88774783D01*
X145071036Y-88136059D01*
X145075481Y-88090922D01*
X145086855Y-88053428D01*
X145105330Y-88018864D01*
X145130189Y-87988574D01*
X145160479Y-87963715D01*
X145195043Y-87945240D01*
X145232537Y-87933866D01*
X145277674Y-87929421D01*
X146016398Y-87929421D01*
X146061535Y-87933866D01*
X146061535Y-87933866D01*
G37*
G36*
X147811535Y-87933866D02*
X147849029Y-87945240D01*
X147883593Y-87963715D01*
X147913883Y-87988574D01*
X147938742Y-88018864D01*
X147957217Y-88053428D01*
X147968591Y-88090922D01*
X147973036Y-88136059D01*
X147973036Y-88774783D01*
X147968591Y-88819920D01*
X147957217Y-88857414D01*
X147938742Y-88891978D01*
X147913883Y-88922268D01*
X147883593Y-88947127D01*
X147849029Y-88965602D01*
X147811535Y-88976976D01*
X147766398Y-88981421D01*
X147027674Y-88981421D01*
X146982537Y-88976976D01*
X146945043Y-88965602D01*
X146910479Y-88947127D01*
X146880189Y-88922268D01*
X146855330Y-88891978D01*
X146836855Y-88857414D01*
X146825481Y-88819920D01*
X146821036Y-88774783D01*
X146821036Y-88136059D01*
X146825481Y-88090922D01*
X146836855Y-88053428D01*
X146855330Y-88018864D01*
X146880189Y-87988574D01*
X146910479Y-87963715D01*
X146945043Y-87945240D01*
X146982537Y-87933866D01*
X147027674Y-87929421D01*
X147766398Y-87929421D01*
X147811535Y-87933866D01*
X147811535Y-87933866D01*
G37*
G36*
X150867036Y-88950421D02*
X149177036Y-88950421D01*
X149177036Y-88560421D01*
X150867036Y-88560421D01*
X150867036Y-88950421D01*
X150867036Y-88950421D01*
G37*
G36*
X156467036Y-88950421D02*
X154777036Y-88950421D01*
X154777036Y-88560421D01*
X156467036Y-88560421D01*
X156467036Y-88950421D01*
X156467036Y-88950421D01*
G37*
G36*
X162186535Y-87158866D02*
X162224029Y-87170240D01*
X162258593Y-87188715D01*
X162288883Y-87213574D01*
X162313742Y-87243864D01*
X162332217Y-87278428D01*
X162343591Y-87315922D01*
X162348036Y-87361059D01*
X162348036Y-88099783D01*
X162343591Y-88144920D01*
X162332217Y-88182414D01*
X162313742Y-88216978D01*
X162288883Y-88247268D01*
X162258593Y-88272127D01*
X162224029Y-88290602D01*
X162186535Y-88301976D01*
X162141398Y-88306421D01*
X161502674Y-88306421D01*
X161457537Y-88301976D01*
X161420043Y-88290602D01*
X161385479Y-88272127D01*
X161355189Y-88247268D01*
X161330330Y-88216978D01*
X161311855Y-88182414D01*
X161300481Y-88144920D01*
X161296036Y-88099783D01*
X161296036Y-87361059D01*
X161300481Y-87315922D01*
X161311855Y-87278428D01*
X161330330Y-87243864D01*
X161355189Y-87213574D01*
X161385479Y-87188715D01*
X161420043Y-87170240D01*
X161457537Y-87158866D01*
X161502674Y-87154421D01*
X162141398Y-87154421D01*
X162186535Y-87158866D01*
X162186535Y-87158866D01*
G37*
G36*
X156467036Y-88300421D02*
X154777036Y-88300421D01*
X154777036Y-87910421D01*
X156467036Y-87910421D01*
X156467036Y-88300421D01*
X156467036Y-88300421D01*
G37*
G36*
X150867036Y-88300421D02*
X149177036Y-88300421D01*
X149177036Y-87910421D01*
X150867036Y-87910421D01*
X150867036Y-88300421D01*
X150867036Y-88300421D01*
G37*
G36*
X160610713Y-86933886D02*
X160648400Y-86945319D01*
X160683139Y-86963887D01*
X160713584Y-86988873D01*
X160738570Y-87019318D01*
X160757138Y-87054057D01*
X160768571Y-87091744D01*
X160773036Y-87137082D01*
X160773036Y-87973760D01*
X160768571Y-88019098D01*
X160757138Y-88056785D01*
X160738570Y-88091524D01*
X160713584Y-88121969D01*
X160683139Y-88146955D01*
X160648400Y-88165523D01*
X160610713Y-88176956D01*
X160565375Y-88181421D01*
X159478697Y-88181421D01*
X159433359Y-88176956D01*
X159395672Y-88165523D01*
X159360933Y-88146955D01*
X159330488Y-88121969D01*
X159305502Y-88091524D01*
X159286934Y-88056785D01*
X159275501Y-88019098D01*
X159271036Y-87973760D01*
X159271036Y-87137082D01*
X159275501Y-87091744D01*
X159286934Y-87054057D01*
X159305502Y-87019318D01*
X159330488Y-86988873D01*
X159360933Y-86963887D01*
X159395672Y-86945319D01*
X159433359Y-86933886D01*
X159478697Y-86929421D01*
X160565375Y-86929421D01*
X160610713Y-86933886D01*
X160610713Y-86933886D01*
G37*
G36*
X150867036Y-87650421D02*
X149177036Y-87650421D01*
X149177036Y-87260421D01*
X150867036Y-87260421D01*
X150867036Y-87650421D01*
X150867036Y-87650421D01*
G37*
G36*
X156467036Y-87650421D02*
X154777036Y-87650421D01*
X154777036Y-87260421D01*
X156467036Y-87260421D01*
X156467036Y-87650421D01*
X156467036Y-87650421D01*
G37*
G36*
X158586535Y-86458866D02*
X158624029Y-86470240D01*
X158658593Y-86488715D01*
X158688883Y-86513574D01*
X158713742Y-86543864D01*
X158732217Y-86578428D01*
X158743591Y-86615922D01*
X158748036Y-86661059D01*
X158748036Y-87399783D01*
X158743591Y-87444920D01*
X158732217Y-87482414D01*
X158713742Y-87516978D01*
X158688883Y-87547268D01*
X158658593Y-87572127D01*
X158624029Y-87590602D01*
X158586535Y-87601976D01*
X158541398Y-87606421D01*
X157902674Y-87606421D01*
X157857537Y-87601976D01*
X157820043Y-87590602D01*
X157785479Y-87572127D01*
X157755189Y-87547268D01*
X157730330Y-87516978D01*
X157711855Y-87482414D01*
X157700481Y-87444920D01*
X157696036Y-87399783D01*
X157696036Y-86661059D01*
X157700481Y-86615922D01*
X157711855Y-86578428D01*
X157730330Y-86543864D01*
X157755189Y-86513574D01*
X157785479Y-86488715D01*
X157820043Y-86470240D01*
X157857537Y-86458866D01*
X157902674Y-86454421D01*
X158541398Y-86454421D01*
X158586535Y-86458866D01*
X158586535Y-86458866D01*
G37*
G36*
X156467036Y-87000421D02*
X154777036Y-87000421D01*
X154777036Y-86610421D01*
X156467036Y-86610421D01*
X156467036Y-87000421D01*
X156467036Y-87000421D01*
G37*
G36*
X150867036Y-87000421D02*
X149177036Y-87000421D01*
X149177036Y-86610421D01*
X150867036Y-86610421D01*
X150867036Y-87000421D01*
X150867036Y-87000421D01*
G37*
G36*
X162186535Y-85408866D02*
X162224029Y-85420240D01*
X162258593Y-85438715D01*
X162288883Y-85463574D01*
X162313742Y-85493864D01*
X162332217Y-85528428D01*
X162343591Y-85565922D01*
X162348036Y-85611059D01*
X162348036Y-86349783D01*
X162343591Y-86394920D01*
X162332217Y-86432414D01*
X162313742Y-86466978D01*
X162288883Y-86497268D01*
X162258593Y-86522127D01*
X162224029Y-86540602D01*
X162186535Y-86551976D01*
X162141398Y-86556421D01*
X161502674Y-86556421D01*
X161457537Y-86551976D01*
X161420043Y-86540602D01*
X161385479Y-86522127D01*
X161355189Y-86497268D01*
X161330330Y-86466978D01*
X161311855Y-86432414D01*
X161300481Y-86394920D01*
X161296036Y-86349783D01*
X161296036Y-85611059D01*
X161300481Y-85565922D01*
X161311855Y-85528428D01*
X161330330Y-85493864D01*
X161355189Y-85463574D01*
X161385479Y-85438715D01*
X161420043Y-85420240D01*
X161457537Y-85408866D01*
X161502674Y-85404421D01*
X162141398Y-85404421D01*
X162186535Y-85408866D01*
X162186535Y-85408866D01*
G37*
G36*
X156467036Y-86350421D02*
X154777036Y-86350421D01*
X154777036Y-85960421D01*
X156467036Y-85960421D01*
X156467036Y-86350421D01*
X156467036Y-86350421D01*
G37*
G36*
X150867036Y-86350421D02*
X149177036Y-86350421D01*
X149177036Y-85960421D01*
X150867036Y-85960421D01*
X150867036Y-86350421D01*
X150867036Y-86350421D01*
G37*
G36*
X160610713Y-84883886D02*
X160648400Y-84895319D01*
X160683139Y-84913887D01*
X160713584Y-84938873D01*
X160738570Y-84969318D01*
X160757138Y-85004057D01*
X160768571Y-85041744D01*
X160773036Y-85087082D01*
X160773036Y-85923760D01*
X160768571Y-85969098D01*
X160757138Y-86006785D01*
X160738570Y-86041524D01*
X160713584Y-86071969D01*
X160683139Y-86096955D01*
X160648400Y-86115523D01*
X160610713Y-86126956D01*
X160565375Y-86131421D01*
X159478697Y-86131421D01*
X159433359Y-86126956D01*
X159395672Y-86115523D01*
X159360933Y-86096955D01*
X159330488Y-86071969D01*
X159305502Y-86041524D01*
X159286934Y-86006785D01*
X159275501Y-85969098D01*
X159271036Y-85923760D01*
X159271036Y-85087082D01*
X159275501Y-85041744D01*
X159286934Y-85004057D01*
X159305502Y-84969318D01*
X159330488Y-84938873D01*
X159360933Y-84913887D01*
X159395672Y-84895319D01*
X159433359Y-84883886D01*
X159478697Y-84879421D01*
X160565375Y-84879421D01*
X160610713Y-84883886D01*
X160610713Y-84883886D01*
G37*
G36*
X158586535Y-84708866D02*
X158624029Y-84720240D01*
X158658593Y-84738715D01*
X158688883Y-84763574D01*
X158713742Y-84793864D01*
X158732217Y-84828428D01*
X158743591Y-84865922D01*
X158748036Y-84911059D01*
X158748036Y-85649783D01*
X158743591Y-85694920D01*
X158732217Y-85732414D01*
X158713742Y-85766978D01*
X158688883Y-85797268D01*
X158658593Y-85822127D01*
X158624029Y-85840602D01*
X158586535Y-85851976D01*
X158541398Y-85856421D01*
X157902674Y-85856421D01*
X157857537Y-85851976D01*
X157820043Y-85840602D01*
X157785479Y-85822127D01*
X157755189Y-85797268D01*
X157730330Y-85766978D01*
X157711855Y-85732414D01*
X157700481Y-85694920D01*
X157696036Y-85649783D01*
X157696036Y-84911059D01*
X157700481Y-84865922D01*
X157711855Y-84828428D01*
X157730330Y-84793864D01*
X157755189Y-84763574D01*
X157785479Y-84738715D01*
X157820043Y-84720240D01*
X157857537Y-84708866D01*
X157902674Y-84704421D01*
X158541398Y-84704421D01*
X158586535Y-84708866D01*
X158586535Y-84708866D01*
G37*
G36*
X142523036Y-85706421D02*
X140071036Y-85706421D01*
X140071036Y-82204421D01*
X142523036Y-82204421D01*
X142523036Y-85706421D01*
X142523036Y-85706421D01*
G37*
G36*
X148573036Y-85706421D02*
X146121036Y-85706421D01*
X146121036Y-82204421D01*
X148573036Y-82204421D01*
X148573036Y-85706421D01*
X148573036Y-85706421D01*
G37*
G36*
X156467036Y-85700421D02*
X154777036Y-85700421D01*
X154777036Y-85310421D01*
X156467036Y-85310421D01*
X156467036Y-85700421D01*
X156467036Y-85700421D01*
G37*
G36*
X150867036Y-85700421D02*
X149177036Y-85700421D01*
X149177036Y-85310421D01*
X150867036Y-85310421D01*
X150867036Y-85700421D01*
X150867036Y-85700421D01*
G37*
G36*
X180183635Y-83011019D02*
X180364903Y-83047075D01*
X180592571Y-83141378D01*
X180749606Y-83246306D01*
X180797469Y-83278287D01*
X180971713Y-83452531D01*
X180971715Y-83452534D01*
X181108622Y-83657429D01*
X181202925Y-83885097D01*
X181251000Y-84126787D01*
X181251000Y-84373213D01*
X181202925Y-84614903D01*
X181108622Y-84842571D01*
X181023932Y-84969318D01*
X180971713Y-85047469D01*
X180797469Y-85221713D01*
X180797466Y-85221715D01*
X180592571Y-85358622D01*
X180364903Y-85452925D01*
X180183636Y-85488981D01*
X180123214Y-85501000D01*
X179876786Y-85501000D01*
X179816365Y-85488981D01*
X179635097Y-85452925D01*
X179407429Y-85358622D01*
X179202534Y-85221715D01*
X179202531Y-85221713D01*
X179028287Y-85047469D01*
X178976068Y-84969318D01*
X178891378Y-84842571D01*
X178797075Y-84614903D01*
X178749000Y-84373213D01*
X178749000Y-84126787D01*
X178797075Y-83885097D01*
X178891378Y-83657429D01*
X179028285Y-83452534D01*
X179028287Y-83452531D01*
X179202531Y-83278287D01*
X179250394Y-83246306D01*
X179407429Y-83141378D01*
X179635097Y-83047075D01*
X179816365Y-83011019D01*
X179876786Y-82999000D01*
X180123214Y-82999000D01*
X180183635Y-83011019D01*
X180183635Y-83011019D01*
G37*
G36*
X168683635Y-83011019D02*
X168864903Y-83047075D01*
X169092571Y-83141378D01*
X169249606Y-83246306D01*
X169297469Y-83278287D01*
X169471713Y-83452531D01*
X169471715Y-83452534D01*
X169608622Y-83657429D01*
X169702925Y-83885097D01*
X169751000Y-84126787D01*
X169751000Y-84373213D01*
X169702925Y-84614903D01*
X169608622Y-84842571D01*
X169523932Y-84969318D01*
X169471713Y-85047469D01*
X169297469Y-85221713D01*
X169297466Y-85221715D01*
X169092571Y-85358622D01*
X168864903Y-85452925D01*
X168683636Y-85488981D01*
X168623214Y-85501000D01*
X168376786Y-85501000D01*
X168316365Y-85488981D01*
X168135097Y-85452925D01*
X167907429Y-85358622D01*
X167702534Y-85221715D01*
X167702531Y-85221713D01*
X167528287Y-85047469D01*
X167476068Y-84969318D01*
X167391378Y-84842571D01*
X167297075Y-84614903D01*
X167249000Y-84373213D01*
X167249000Y-84126787D01*
X167297075Y-83885097D01*
X167391378Y-83657429D01*
X167528285Y-83452534D01*
X167528287Y-83452531D01*
X167702531Y-83278287D01*
X167750394Y-83246306D01*
X167907429Y-83141378D01*
X168135097Y-83047075D01*
X168316365Y-83011019D01*
X168376786Y-82999000D01*
X168623214Y-82999000D01*
X168683635Y-83011019D01*
X168683635Y-83011019D01*
G37*
G36*
X160436535Y-83133866D02*
X160474029Y-83145240D01*
X160508593Y-83163715D01*
X160538883Y-83188574D01*
X160563742Y-83218864D01*
X160582217Y-83253428D01*
X160593591Y-83290922D01*
X160598036Y-83336059D01*
X160598036Y-83974783D01*
X160593591Y-84019920D01*
X160582217Y-84057414D01*
X160563742Y-84091978D01*
X160538883Y-84122268D01*
X160508593Y-84147127D01*
X160474029Y-84165602D01*
X160436535Y-84176976D01*
X160391398Y-84181421D01*
X159652674Y-84181421D01*
X159607537Y-84176976D01*
X159570043Y-84165602D01*
X159535479Y-84147127D01*
X159505189Y-84122268D01*
X159480330Y-84091978D01*
X159461855Y-84057414D01*
X159450481Y-84019920D01*
X159446036Y-83974783D01*
X159446036Y-83336059D01*
X159450481Y-83290922D01*
X159461855Y-83253428D01*
X159480330Y-83218864D01*
X159505189Y-83188574D01*
X159535479Y-83163715D01*
X159570043Y-83145240D01*
X159607537Y-83133866D01*
X159652674Y-83129421D01*
X160391398Y-83129421D01*
X160436535Y-83133866D01*
X160436535Y-83133866D01*
G37*
G36*
X158686535Y-83133866D02*
X158724029Y-83145240D01*
X158758593Y-83163715D01*
X158788883Y-83188574D01*
X158813742Y-83218864D01*
X158832217Y-83253428D01*
X158843591Y-83290922D01*
X158848036Y-83336059D01*
X158848036Y-83974783D01*
X158843591Y-84019920D01*
X158832217Y-84057414D01*
X158813742Y-84091978D01*
X158788883Y-84122268D01*
X158758593Y-84147127D01*
X158724029Y-84165602D01*
X158686535Y-84176976D01*
X158641398Y-84181421D01*
X157902674Y-84181421D01*
X157857537Y-84176976D01*
X157820043Y-84165602D01*
X157785479Y-84147127D01*
X157755189Y-84122268D01*
X157730330Y-84091978D01*
X157711855Y-84057414D01*
X157700481Y-84019920D01*
X157696036Y-83974783D01*
X157696036Y-83336059D01*
X157700481Y-83290922D01*
X157711855Y-83253428D01*
X157730330Y-83218864D01*
X157755189Y-83188574D01*
X157785479Y-83163715D01*
X157820043Y-83145240D01*
X157857537Y-83133866D01*
X157902674Y-83129421D01*
X158641398Y-83129421D01*
X158686535Y-83133866D01*
X158686535Y-83133866D01*
G37*
G36*
X139194833Y-82158668D02*
X139230403Y-82169458D01*
X139263175Y-82186975D01*
X139291905Y-82210552D01*
X139315482Y-82239282D01*
X139332999Y-82272054D01*
X139343789Y-82307624D01*
X139348036Y-82350745D01*
X139348036Y-83635097D01*
X139343789Y-83678218D01*
X139332999Y-83713788D01*
X139315482Y-83746560D01*
X139291905Y-83775290D01*
X139263175Y-83798867D01*
X139230403Y-83816384D01*
X139194833Y-83827174D01*
X139151712Y-83831421D01*
X138092360Y-83831421D01*
X138049239Y-83827174D01*
X138013669Y-83816384D01*
X137980897Y-83798867D01*
X137952167Y-83775290D01*
X137928590Y-83746560D01*
X137911073Y-83713788D01*
X137900283Y-83678218D01*
X137896036Y-83635097D01*
X137896036Y-82350745D01*
X137900283Y-82307624D01*
X137911073Y-82272054D01*
X137928590Y-82239282D01*
X137952167Y-82210552D01*
X137980897Y-82186975D01*
X138013669Y-82169458D01*
X138049239Y-82158668D01*
X138092360Y-82154421D01*
X139151712Y-82154421D01*
X139194833Y-82158668D01*
X139194833Y-82158668D01*
G37*
G36*
X136894833Y-82096168D02*
X136930403Y-82106958D01*
X136963175Y-82124475D01*
X136991905Y-82148052D01*
X137015482Y-82176782D01*
X137032999Y-82209554D01*
X137043789Y-82245124D01*
X137048036Y-82288245D01*
X137048036Y-83572597D01*
X137043789Y-83615718D01*
X137032999Y-83651288D01*
X137015482Y-83684060D01*
X136991905Y-83712790D01*
X136963175Y-83736367D01*
X136930403Y-83753884D01*
X136894833Y-83764674D01*
X136851712Y-83768921D01*
X135792360Y-83768921D01*
X135749239Y-83764674D01*
X135713669Y-83753884D01*
X135680897Y-83736367D01*
X135652167Y-83712790D01*
X135628590Y-83684060D01*
X135611073Y-83651288D01*
X135600283Y-83615718D01*
X135596036Y-83572597D01*
X135596036Y-82288245D01*
X135600283Y-82245124D01*
X135611073Y-82209554D01*
X135628590Y-82176782D01*
X135652167Y-82148052D01*
X135680897Y-82124475D01*
X135713669Y-82106958D01*
X135749239Y-82096168D01*
X135792360Y-82091921D01*
X136851712Y-82091921D01*
X136894833Y-82096168D01*
X136894833Y-82096168D01*
G37*
G36*
X139194833Y-79283668D02*
X139230403Y-79294458D01*
X139263175Y-79311975D01*
X139291905Y-79335552D01*
X139315482Y-79364282D01*
X139332999Y-79397054D01*
X139343789Y-79432624D01*
X139348036Y-79475745D01*
X139348036Y-80760097D01*
X139343789Y-80803218D01*
X139332999Y-80838788D01*
X139315482Y-80871560D01*
X139291905Y-80900290D01*
X139263175Y-80923867D01*
X139230403Y-80941384D01*
X139194833Y-80952174D01*
X139151712Y-80956421D01*
X138092360Y-80956421D01*
X138049239Y-80952174D01*
X138013669Y-80941384D01*
X137980897Y-80923867D01*
X137952167Y-80900290D01*
X137928590Y-80871560D01*
X137911073Y-80838788D01*
X137900283Y-80803218D01*
X137896036Y-80760097D01*
X137896036Y-79475745D01*
X137900283Y-79432624D01*
X137911073Y-79397054D01*
X137928590Y-79364282D01*
X137952167Y-79335552D01*
X137980897Y-79311975D01*
X138013669Y-79294458D01*
X138049239Y-79283668D01*
X138092360Y-79279421D01*
X139151712Y-79279421D01*
X139194833Y-79283668D01*
X139194833Y-79283668D01*
G37*
G36*
X136894833Y-79221168D02*
X136930403Y-79231958D01*
X136963175Y-79249475D01*
X136991905Y-79273052D01*
X137015482Y-79301782D01*
X137032999Y-79334554D01*
X137043789Y-79370124D01*
X137048036Y-79413245D01*
X137048036Y-80697597D01*
X137043789Y-80740718D01*
X137032999Y-80776288D01*
X137015482Y-80809060D01*
X136991905Y-80837790D01*
X136963175Y-80861367D01*
X136930403Y-80878884D01*
X136894833Y-80889674D01*
X136851712Y-80893921D01*
X135792360Y-80893921D01*
X135749239Y-80889674D01*
X135713669Y-80878884D01*
X135680897Y-80861367D01*
X135652167Y-80837790D01*
X135628590Y-80809060D01*
X135611073Y-80776288D01*
X135600283Y-80740718D01*
X135596036Y-80697597D01*
X135596036Y-79413245D01*
X135600283Y-79370124D01*
X135611073Y-79334554D01*
X135628590Y-79301782D01*
X135652167Y-79273052D01*
X135680897Y-79249475D01*
X135713669Y-79231958D01*
X135749239Y-79221168D01*
X135792360Y-79216921D01*
X136851712Y-79216921D01*
X136894833Y-79221168D01*
X136894833Y-79221168D01*
G37*
G36*
X121289499Y-79478445D02*
X121326993Y-79489819D01*
X121361557Y-79508294D01*
X121391847Y-79533153D01*
X121416706Y-79563443D01*
X121435181Y-79598007D01*
X121446555Y-79635501D01*
X121451000Y-79680638D01*
X121451000Y-80319362D01*
X121446555Y-80364499D01*
X121435181Y-80401993D01*
X121416706Y-80436557D01*
X121391847Y-80466847D01*
X121361557Y-80491706D01*
X121326993Y-80510181D01*
X121289499Y-80521555D01*
X121244362Y-80526000D01*
X120505638Y-80526000D01*
X120460501Y-80521555D01*
X120423007Y-80510181D01*
X120388443Y-80491706D01*
X120358153Y-80466847D01*
X120333294Y-80436557D01*
X120314819Y-80401993D01*
X120303445Y-80364499D01*
X120299000Y-80319362D01*
X120299000Y-79680638D01*
X120303445Y-79635501D01*
X120314819Y-79598007D01*
X120333294Y-79563443D01*
X120358153Y-79533153D01*
X120388443Y-79508294D01*
X120423007Y-79489819D01*
X120460501Y-79478445D01*
X120505638Y-79474000D01*
X121244362Y-79474000D01*
X121289499Y-79478445D01*
X121289499Y-79478445D01*
G37*
G36*
X119539499Y-79478445D02*
X119576993Y-79489819D01*
X119611557Y-79508294D01*
X119641847Y-79533153D01*
X119666706Y-79563443D01*
X119685181Y-79598007D01*
X119696555Y-79635501D01*
X119701000Y-79680638D01*
X119701000Y-80319362D01*
X119696555Y-80364499D01*
X119685181Y-80401993D01*
X119666706Y-80436557D01*
X119641847Y-80466847D01*
X119611557Y-80491706D01*
X119576993Y-80510181D01*
X119539499Y-80521555D01*
X119494362Y-80526000D01*
X118755638Y-80526000D01*
X118710501Y-80521555D01*
X118673007Y-80510181D01*
X118638443Y-80491706D01*
X118608153Y-80466847D01*
X118583294Y-80436557D01*
X118564819Y-80401993D01*
X118553445Y-80364499D01*
X118549000Y-80319362D01*
X118549000Y-79680638D01*
X118553445Y-79635501D01*
X118564819Y-79598007D01*
X118583294Y-79563443D01*
X118608153Y-79533153D01*
X118638443Y-79508294D01*
X118673007Y-79489819D01*
X118710501Y-79478445D01*
X118755638Y-79474000D01*
X119494362Y-79474000D01*
X119539499Y-79478445D01*
X119539499Y-79478445D01*
G37*
G36*
X119539499Y-75978445D02*
X119576993Y-75989819D01*
X119611557Y-76008294D01*
X119641847Y-76033153D01*
X119666706Y-76063443D01*
X119685181Y-76098007D01*
X119696555Y-76135501D01*
X119701000Y-76180638D01*
X119701000Y-76819362D01*
X119696555Y-76864499D01*
X119685181Y-76901993D01*
X119666706Y-76936557D01*
X119641847Y-76966847D01*
X119611557Y-76991706D01*
X119576993Y-77010181D01*
X119539499Y-77021555D01*
X119494362Y-77026000D01*
X118755638Y-77026000D01*
X118710501Y-77021555D01*
X118673007Y-77010181D01*
X118638443Y-76991706D01*
X118608153Y-76966847D01*
X118583294Y-76936557D01*
X118564819Y-76901993D01*
X118553445Y-76864499D01*
X118549000Y-76819362D01*
X118549000Y-76180638D01*
X118553445Y-76135501D01*
X118564819Y-76098007D01*
X118583294Y-76063443D01*
X118608153Y-76033153D01*
X118638443Y-76008294D01*
X118673007Y-75989819D01*
X118710501Y-75978445D01*
X118755638Y-75974000D01*
X119494362Y-75974000D01*
X119539499Y-75978445D01*
X119539499Y-75978445D01*
G37*
G36*
X121289499Y-75978445D02*
X121326993Y-75989819D01*
X121361557Y-76008294D01*
X121391847Y-76033153D01*
X121416706Y-76063443D01*
X121435181Y-76098007D01*
X121446555Y-76135501D01*
X121451000Y-76180638D01*
X121451000Y-76819362D01*
X121446555Y-76864499D01*
X121435181Y-76901993D01*
X121416706Y-76936557D01*
X121391847Y-76966847D01*
X121361557Y-76991706D01*
X121326993Y-77010181D01*
X121289499Y-77021555D01*
X121244362Y-77026000D01*
X120505638Y-77026000D01*
X120460501Y-77021555D01*
X120423007Y-77010181D01*
X120388443Y-76991706D01*
X120358153Y-76966847D01*
X120333294Y-76936557D01*
X120314819Y-76901993D01*
X120303445Y-76864499D01*
X120299000Y-76819362D01*
X120299000Y-76180638D01*
X120303445Y-76135501D01*
X120314819Y-76098007D01*
X120333294Y-76063443D01*
X120358153Y-76033153D01*
X120388443Y-76008294D01*
X120423007Y-75989819D01*
X120460501Y-75978445D01*
X120505638Y-75974000D01*
X121244362Y-75974000D01*
X121289499Y-75978445D01*
X121289499Y-75978445D01*
G37*
G36*
X145741000Y-75151000D02*
X144639000Y-75151000D01*
X144639000Y-71899000D01*
X145741000Y-71899000D01*
X145741000Y-75151000D01*
X145741000Y-75151000D01*
G37*
G36*
X155901000Y-75151000D02*
X154799000Y-75151000D01*
X154799000Y-71899000D01*
X155901000Y-71899000D01*
X155901000Y-75151000D01*
X155901000Y-75151000D01*
G37*
G36*
X158441000Y-75151000D02*
X157339000Y-75151000D01*
X157339000Y-71899000D01*
X158441000Y-71899000D01*
X158441000Y-75151000D01*
X158441000Y-75151000D01*
G37*
G36*
X153361000Y-75151000D02*
X152259000Y-75151000D01*
X152259000Y-71899000D01*
X153361000Y-71899000D01*
X153361000Y-75151000D01*
X153361000Y-75151000D01*
G37*
G36*
X173681000Y-75151000D02*
X172579000Y-75151000D01*
X172579000Y-71899000D01*
X173681000Y-71899000D01*
X173681000Y-75151000D01*
X173681000Y-75151000D01*
G37*
G36*
X171141000Y-75151000D02*
X170039000Y-75151000D01*
X170039000Y-71899000D01*
X171141000Y-71899000D01*
X171141000Y-75151000D01*
X171141000Y-75151000D01*
G37*
G36*
X168601000Y-75151000D02*
X167499000Y-75151000D01*
X167499000Y-71899000D01*
X168601000Y-71899000D01*
X168601000Y-75151000D01*
X168601000Y-75151000D01*
G37*
G36*
X130501000Y-75151000D02*
X129399000Y-75151000D01*
X129399000Y-71899000D01*
X130501000Y-71899000D01*
X130501000Y-75151000D01*
X130501000Y-75151000D01*
G37*
G36*
X133041000Y-75151000D02*
X131939000Y-75151000D01*
X131939000Y-71899000D01*
X133041000Y-71899000D01*
X133041000Y-75151000D01*
X133041000Y-75151000D01*
G37*
G36*
X135581000Y-75151000D02*
X134479000Y-75151000D01*
X134479000Y-71899000D01*
X135581000Y-71899000D01*
X135581000Y-75151000D01*
X135581000Y-75151000D01*
G37*
G36*
X166061000Y-75151000D02*
X164959000Y-75151000D01*
X164959000Y-71899000D01*
X166061000Y-71899000D01*
X166061000Y-75151000D01*
X166061000Y-75151000D01*
G37*
G36*
X163521000Y-75151000D02*
X162419000Y-75151000D01*
X162419000Y-71899000D01*
X163521000Y-71899000D01*
X163521000Y-75151000D01*
X163521000Y-75151000D01*
G37*
G36*
X140661000Y-75151000D02*
X139559000Y-75151000D01*
X139559000Y-71899000D01*
X140661000Y-71899000D01*
X140661000Y-75151000D01*
X140661000Y-75151000D01*
G37*
G36*
X143201000Y-75151000D02*
X142099000Y-75151000D01*
X142099000Y-71899000D01*
X143201000Y-71899000D01*
X143201000Y-75151000D01*
X143201000Y-75151000D01*
G37*
G36*
X148281000Y-75151000D02*
X147179000Y-75151000D01*
X147179000Y-71899000D01*
X148281000Y-71899000D01*
X148281000Y-75151000D01*
X148281000Y-75151000D01*
G37*
G36*
X150821000Y-75151000D02*
X149719000Y-75151000D01*
X149719000Y-71899000D01*
X150821000Y-71899000D01*
X150821000Y-75151000D01*
X150821000Y-75151000D01*
G37*
G36*
X160981000Y-75151000D02*
X159879000Y-75151000D01*
X159879000Y-71899000D01*
X160981000Y-71899000D01*
X160981000Y-75151000D01*
X160981000Y-75151000D01*
G37*
G36*
X127961000Y-75151000D02*
X126859000Y-75151000D01*
X126859000Y-71899000D01*
X127961000Y-71899000D01*
X127961000Y-75151000D01*
X127961000Y-75151000D01*
G37*
G36*
X125421000Y-75151000D02*
X124319000Y-75151000D01*
X124319000Y-71899000D01*
X125421000Y-71899000D01*
X125421000Y-75151000D01*
X125421000Y-75151000D01*
G37*
G36*
X138121000Y-75151000D02*
X137019000Y-75151000D01*
X137019000Y-71899000D01*
X138121000Y-71899000D01*
X138121000Y-75151000D01*
X138121000Y-75151000D01*
G37*
G36*
X120518699Y-68094362D02*
X120860775Y-68162405D01*
X121397823Y-68384857D01*
X121881153Y-68707808D01*
X122292192Y-69118847D01*
X122615143Y-69602177D01*
X122837595Y-70139225D01*
X122951000Y-70709352D01*
X122951000Y-71290648D01*
X122837595Y-71860775D01*
X122615143Y-72397823D01*
X122292192Y-72881153D01*
X121881153Y-73292192D01*
X121397823Y-73615143D01*
X120860775Y-73837595D01*
X120518699Y-73905638D01*
X120290650Y-73951000D01*
X119709350Y-73951000D01*
X119481301Y-73905638D01*
X119139225Y-73837595D01*
X118602177Y-73615143D01*
X118118847Y-73292192D01*
X117707808Y-72881153D01*
X117384857Y-72397823D01*
X117162405Y-71860775D01*
X117049000Y-71290648D01*
X117049000Y-70709352D01*
X117162405Y-70139225D01*
X117384857Y-69602177D01*
X117707808Y-69118847D01*
X118118847Y-68707808D01*
X118602177Y-68384857D01*
X119139225Y-68162405D01*
X119481301Y-68094362D01*
X119709350Y-68049000D01*
X120290650Y-68049000D01*
X120518699Y-68094362D01*
X120518699Y-68094362D01*
G37*
G36*
X178518699Y-68094362D02*
X178860775Y-68162405D01*
X179397823Y-68384857D01*
X179881153Y-68707808D01*
X180292192Y-69118847D01*
X180615143Y-69602177D01*
X180837595Y-70139225D01*
X180951000Y-70709352D01*
X180951000Y-71290648D01*
X180837595Y-71860775D01*
X180615143Y-72397823D01*
X180292192Y-72881153D01*
X179881153Y-73292192D01*
X179397823Y-73615143D01*
X178860775Y-73837595D01*
X178518699Y-73905638D01*
X178290650Y-73951000D01*
X177709350Y-73951000D01*
X177481301Y-73905638D01*
X177139225Y-73837595D01*
X176602177Y-73615143D01*
X176118847Y-73292192D01*
X175707808Y-72881153D01*
X175384857Y-72397823D01*
X175162405Y-71860775D01*
X175049000Y-71290648D01*
X175049000Y-70709352D01*
X175162405Y-70139225D01*
X175384857Y-69602177D01*
X175707808Y-69118847D01*
X176118847Y-68707808D01*
X176602177Y-68384857D01*
X177139225Y-68162405D01*
X177481301Y-68094362D01*
X177709350Y-68049000D01*
X178290650Y-68049000D01*
X178518699Y-68094362D01*
X178518699Y-68094362D01*
G37*
G36*
X163521000Y-70101000D02*
X162419000Y-70101000D01*
X162419000Y-66849000D01*
X163521000Y-66849000D01*
X163521000Y-70101000D01*
X163521000Y-70101000D01*
G37*
G36*
X166061000Y-70101000D02*
X164959000Y-70101000D01*
X164959000Y-66849000D01*
X166061000Y-66849000D01*
X166061000Y-70101000D01*
X166061000Y-70101000D01*
G37*
G36*
X168601000Y-70101000D02*
X167499000Y-70101000D01*
X167499000Y-66849000D01*
X168601000Y-66849000D01*
X168601000Y-70101000D01*
X168601000Y-70101000D01*
G37*
G36*
X171141000Y-70101000D02*
X170039000Y-70101000D01*
X170039000Y-66849000D01*
X171141000Y-66849000D01*
X171141000Y-70101000D01*
X171141000Y-70101000D01*
G37*
G36*
X173681000Y-70101000D02*
X172579000Y-70101000D01*
X172579000Y-66849000D01*
X173681000Y-66849000D01*
X173681000Y-70101000D01*
X173681000Y-70101000D01*
G37*
G36*
X160981000Y-70101000D02*
X159879000Y-70101000D01*
X159879000Y-66849000D01*
X160981000Y-66849000D01*
X160981000Y-70101000D01*
X160981000Y-70101000D01*
G37*
G36*
X158441000Y-70101000D02*
X157339000Y-70101000D01*
X157339000Y-66849000D01*
X158441000Y-66849000D01*
X158441000Y-70101000D01*
X158441000Y-70101000D01*
G37*
G36*
X127961000Y-70101000D02*
X126859000Y-70101000D01*
X126859000Y-66849000D01*
X127961000Y-66849000D01*
X127961000Y-70101000D01*
X127961000Y-70101000D01*
G37*
G36*
X155901000Y-70101000D02*
X154799000Y-70101000D01*
X154799000Y-66849000D01*
X155901000Y-66849000D01*
X155901000Y-70101000D01*
X155901000Y-70101000D01*
G37*
G36*
X130501000Y-70101000D02*
X129399000Y-70101000D01*
X129399000Y-66849000D01*
X130501000Y-66849000D01*
X130501000Y-70101000D01*
X130501000Y-70101000D01*
G37*
G36*
X143201000Y-70101000D02*
X142099000Y-70101000D01*
X142099000Y-66849000D01*
X143201000Y-66849000D01*
X143201000Y-70101000D01*
X143201000Y-70101000D01*
G37*
G36*
X140661000Y-70101000D02*
X139559000Y-70101000D01*
X139559000Y-66849000D01*
X140661000Y-66849000D01*
X140661000Y-70101000D01*
X140661000Y-70101000D01*
G37*
G36*
X145741000Y-70101000D02*
X144639000Y-70101000D01*
X144639000Y-66849000D01*
X145741000Y-66849000D01*
X145741000Y-70101000D01*
X145741000Y-70101000D01*
G37*
G36*
X138121000Y-70101000D02*
X137019000Y-70101000D01*
X137019000Y-66849000D01*
X138121000Y-66849000D01*
X138121000Y-70101000D01*
X138121000Y-70101000D01*
G37*
G36*
X148281000Y-70101000D02*
X147179000Y-70101000D01*
X147179000Y-66849000D01*
X148281000Y-66849000D01*
X148281000Y-70101000D01*
X148281000Y-70101000D01*
G37*
G36*
X135581000Y-70101000D02*
X134479000Y-70101000D01*
X134479000Y-66849000D01*
X135581000Y-66849000D01*
X135581000Y-70101000D01*
X135581000Y-70101000D01*
G37*
G36*
X150821000Y-70101000D02*
X149719000Y-70101000D01*
X149719000Y-66849000D01*
X150821000Y-66849000D01*
X150821000Y-70101000D01*
X150821000Y-70101000D01*
G37*
G36*
X133041000Y-70101000D02*
X131939000Y-70101000D01*
X131939000Y-66849000D01*
X133041000Y-66849000D01*
X133041000Y-70101000D01*
X133041000Y-70101000D01*
G37*
G36*
X125421000Y-70101000D02*
X124319000Y-70101000D01*
X124319000Y-66849000D01*
X125421000Y-66849000D01*
X125421000Y-70101000D01*
X125421000Y-70101000D01*
G37*
G36*
X153361000Y-70101000D02*
X152259000Y-70101000D01*
X152259000Y-66849000D01*
X153361000Y-66849000D01*
X153361000Y-70101000D01*
X153361000Y-70101000D01*
G37*
M02*
